<svg width="42" height="45" viewBox="0 0 42 45" fill="none" xmlns="http://www.w3.org/2000/svg">
<rect width="42" height="42" rx="21" fill="url(#paint0_linear_306_1918)"/>
<g opacity="0.25" filter="url(#filter0_f_306_1918)">
<rect x="6.32812" y="21" width="28.6114" height="17.8821" rx="8.94105" fill="url(#paint1_radial_306_1918)"/>
</g>
<rect x="5.46094" y="5.45996" width="30.9956" height="30.9956" rx="15.4978" fill="url(#paint2_radial_306_1918)"/>
<g filter="url(#filter1_i_306_1918)">
<path d="M20.9994 12.5996C16.2682 12.5996 12.5996 16.0666 12.5996 20.7474C12.5996 23.1959 13.6034 25.3127 15.2371 26.7742C15.3736 26.896 15.4576 27.0682 15.4618 27.253L15.508 28.7482C15.5114 28.8582 15.5417 28.9657 15.5964 29.0612C15.651 29.1568 15.7283 29.2374 15.8214 29.2961C15.9145 29.3548 16.0206 29.3897 16.1304 29.3978C16.2401 29.4059 16.3502 29.3869 16.4509 29.3424L18.1183 28.6075C18.259 28.5445 18.4186 28.534 18.5676 28.5739C19.3341 28.7839 20.1489 28.8973 20.9994 28.8973C25.7306 28.8973 29.3992 25.4303 29.3992 20.7495C29.3992 16.0687 25.7306 12.5996 20.9994 12.5996Z" fill="white"/>
<path d="M15.9553 23.1308L18.4228 19.2165C18.5156 19.0692 18.6379 18.9426 18.7821 18.8449C18.9263 18.7472 19.0892 18.6805 19.2605 18.6489C19.4317 18.6174 19.6077 18.6216 19.7773 18.6615C19.9468 18.7014 20.1062 18.7759 20.2455 18.8805L22.2089 20.3526C22.2966 20.4182 22.4032 20.4535 22.5127 20.4531C22.6222 20.4528 22.7286 20.4167 22.8158 20.3505L25.466 18.3388C25.8187 18.07 26.2807 18.4941 26.0455 18.87L23.576 22.7822C23.4832 22.9296 23.3608 23.0561 23.2166 23.1538C23.0724 23.2515 22.9096 23.3183 22.7383 23.3498C22.567 23.3814 22.391 23.3771 22.2215 23.3373C22.052 23.2974 21.8925 23.2228 21.7533 23.1182L19.7898 21.6462C19.7022 21.5805 19.5955 21.5452 19.486 21.5456C19.3765 21.546 19.2701 21.582 19.1829 21.6483L16.5328 23.66C16.18 23.9288 15.718 23.5067 15.9553 23.1308Z" fill="url(#paint3_radial_306_1918)"/>
</g>
<defs>
<filter id="filter0_f_306_1918" x="0.868125" y="15.54" width="39.5313" height="28.8023" filterUnits="userSpaceOnUse" color-interpolation-filters="sRGB">
<feFlood flood-opacity="0" result="BackgroundImageFix"/>
<feBlend mode="normal" in="SourceGraphic" in2="BackgroundImageFix" result="shape"/>
<feGaussianBlur stdDeviation="2.73" result="effect1_foregroundBlur_306_1918"/>
</filter>
<filter id="filter1_i_306_1918" x="11.3398" y="11.3398" width="18.9004" height="19.3999" filterUnits="userSpaceOnUse" color-interpolation-filters="sRGB">
<feFlood flood-opacity="0" result="BackgroundImageFix"/>
<feBlend mode="normal" in="SourceGraphic" in2="BackgroundImageFix" result="shape"/>
<feColorMatrix in="SourceAlpha" type="matrix" values="0 0 0 0 0 0 0 0 0 0 0 0 0 0 0 0 0 0 127 0" result="hardAlpha"/>
<feOffset dy="0.5"/>
<feGaussianBlur stdDeviation="1.25"/>
<feComposite in2="hardAlpha" operator="arithmetic" k2="-1" k3="1"/>
<feColorMatrix type="matrix" values="0 0 0 0 0 0 0 0 0 0 0 0 0 0 0 0 0 0 0.1 0"/>
<feBlend mode="normal" in2="shape" result="effect1_innerShadow_306_1918"/>
</filter>
<linearGradient id="paint0_linear_306_1918" x1="3.53057" y1="2.75109" x2="34.7096" y2="42" gradientUnits="userSpaceOnUse">
<stop stop-color="#FBFBFC"/>
<stop offset="1" stop-color="#DBDDE8"/>
</linearGradient>
<radialGradient id="paint1_radial_306_1918" cx="0" cy="0" r="1" gradientUnits="userSpaceOnUse" gradientTransform="translate(11.1205 38.8816) scale(31.4725 19.6698)">
<stop stop-color="#0099FF"/>
<stop offset="0.6" stop-color="#A033FF"/>
<stop offset="0.9" stop-color="#FF5280"/>
<stop offset="1" stop-color="#FF7061"/>
</radialGradient>
<radialGradient id="paint2_radial_306_1918" cx="0" cy="0" r="1" gradientUnits="userSpaceOnUse" gradientTransform="translate(10.6527 36.4547) scale(34.0952 34.0943)">
<stop stop-color="#0099FF"/>
<stop offset="0.6" stop-color="#A033FF"/>
<stop offset="0.9" stop-color="#FF5280"/>
<stop offset="1" stop-color="#FF7061"/>
</radialGradient>
<radialGradient id="paint3_radial_306_1918" cx="0" cy="0" r="1" gradientUnits="userSpaceOnUse" gradientTransform="translate(15.4135 29.3991) scale(18.4795 18.4795)">
<stop stop-color="#0099FF"/>
<stop offset="0.6" stop-color="#A033FF"/>
<stop offset="0.9" stop-color="#FF5280"/>
<stop offset="1" stop-color="#FF7061"/>
</radialGradient>
</defs>
</svg>
