<svg width="42" height="45" viewBox="0 0 42 45" fill="none" xmlns="http://www.w3.org/2000/svg">
<rect width="42" height="42" rx="21" fill="url(#paint0_linear_306_1924)"/>
<g opacity="0.25" filter="url(#filter0_f_306_1924)">
<rect x="6.32812" y="21" width="28.6114" height="17.8821" rx="8.94105" fill="url(#paint1_linear_306_1924)"/>
</g>
<rect x="5.46094" y="5.45996" width="30.9956" height="30.9956" rx="15.4978" fill="url(#paint2_linear_306_1924)"/>
<g filter="url(#filter1_i_306_1924)">
<path d="M13.6296 19.9773C13.6296 19.9773 21.0598 16.6821 23.6368 15.5218C24.6246 15.0577 27.9746 13.5725 27.9746 13.5725C27.9746 13.5725 29.5208 12.9227 29.392 14.5007C29.349 15.1505 29.0054 17.4247 28.6619 19.8845C28.1464 23.3654 27.5881 27.1712 27.5881 27.1712C27.5881 27.1712 27.5022 28.2387 26.7721 28.4244C26.042 28.61 24.8393 27.7746 24.6246 27.5889C24.4528 27.4497 21.4034 25.3611 20.2867 24.3401C19.9861 24.0616 19.6425 23.5047 20.3296 22.8549C21.8758 21.3233 23.7226 19.4204 24.8393 18.2137C25.3547 17.6567 25.8701 16.3572 23.7226 17.9352C20.6733 20.2094 17.6668 22.3444 17.6668 22.3444C17.6668 22.3444 16.9796 22.8085 15.6912 22.3908C14.4026 21.9731 12.8994 21.4161 12.8994 21.4161C12.8994 21.4161 11.8687 20.72 13.6296 19.9773Z" fill="white"/>
</g>
<defs>
<filter id="filter0_f_306_1924" x="0.868125" y="15.54" width="39.5313" height="28.8023" filterUnits="userSpaceOnUse" color-interpolation-filters="sRGB">
<feFlood flood-opacity="0" result="BackgroundImageFix"/>
<feBlend mode="normal" in="SourceGraphic" in2="BackgroundImageFix" result="shape"/>
<feGaussianBlur stdDeviation="2.73" result="effect1_foregroundBlur_306_1924"/>
</filter>
<filter id="filter1_i_306_1924" x="11.3398" y="11.3398" width="18.9004" height="19.3999" filterUnits="userSpaceOnUse" color-interpolation-filters="sRGB">
<feFlood flood-opacity="0" result="BackgroundImageFix"/>
<feBlend mode="normal" in="SourceGraphic" in2="BackgroundImageFix" result="shape"/>
<feColorMatrix in="SourceAlpha" type="matrix" values="0 0 0 0 0 0 0 0 0 0 0 0 0 0 0 0 0 0 127 0" result="hardAlpha"/>
<feOffset dy="0.5"/>
<feGaussianBlur stdDeviation="1.25"/>
<feComposite in2="hardAlpha" operator="arithmetic" k2="-1" k3="1"/>
<feColorMatrix type="matrix" values="0 0 0 0 0 0 0 0 0 0 0 0 0 0 0 0 0 0 0.1 0"/>
<feBlend mode="normal" in2="shape" result="effect1_innerShadow_306_1924"/>
</filter>
<linearGradient id="paint0_linear_306_1924" x1="3.53057" y1="2.75109" x2="34.7096" y2="42" gradientUnits="userSpaceOnUse">
<stop stop-color="#FBFBFC"/>
<stop offset="1" stop-color="#DBDDE8"/>
</linearGradient>
<linearGradient id="paint1_linear_306_1924" x1="8.84812" y1="22.3327" x2="21.8004" y2="44.7411" gradientUnits="userSpaceOnUse">
<stop stop-color="#0088CC"/>
<stop offset="1" stop-color="#0083C5"/>
</linearGradient>
<linearGradient id="paint2_linear_306_1924" x1="8.19094" y1="7.76996" x2="34.0209" y2="35.7" gradientUnits="userSpaceOnUse">
<stop stop-color="#0088CC"/>
<stop offset="1" stop-color="#0083C5"/>
</linearGradient>
</defs>
</svg>
