<svg width="42" height="45" viewBox="0 0 42 45" fill="none" xmlns="http://www.w3.org/2000/svg">
<rect width="42" height="42" rx="21" fill="url(#paint0_linear_306_1893)"/>
<g opacity="0.25" filter="url(#filter0_f_306_1893)">
<rect x="6.32812" y="21" width="28.6114" height="17.8821" rx="8.94105" fill="url(#paint1_linear_306_1893)"/>
</g>
<rect x="5.46094" y="5.45996" width="30.9956" height="30.9956" rx="15.4978" fill="url(#paint2_linear_306_1893)"/>
<g clip-path="url(#clip0_306_1893)" filter="url(#filter1_i_306_1893)">
<path d="M11.3398 30.2398L12.6947 25.2023C11.602 23.2399 11.2549 20.9499 11.7169 18.7526C12.179 16.5554 13.4193 14.5981 15.2101 13.2401C17.001 11.882 19.2223 11.2143 21.4666 11.3594C23.7108 11.5044 25.8273 12.4526 27.4278 14.0299C29.0283 15.6072 30.0053 17.7078 30.1797 19.9462C30.354 22.1846 29.714 24.4107 28.377 26.2161C27.0399 28.0214 25.0957 29.2848 22.9009 29.7745C20.7061 30.2642 18.4081 29.9473 16.4284 28.8819L11.3398 30.2398ZM16.6738 26.9968L16.9885 27.1832C18.4224 28.0317 20.0971 28.3828 21.7518 28.1819C23.4064 27.9809 24.948 27.2391 26.1363 26.0722C27.3245 24.9052 28.0928 23.3786 28.3212 21.7302C28.5497 20.0818 28.2256 18.4043 27.3994 16.9591C26.5732 15.5138 25.2913 14.382 23.7535 13.74C22.2157 13.098 20.5084 12.9819 18.8976 13.4098C17.2868 13.8377 15.863 14.7855 14.8481 16.1056C13.8332 17.4256 13.2843 19.0438 13.2867 20.7079C13.2854 22.0876 13.6676 23.4407 14.3909 24.6165L14.5882 24.9413L13.8308 27.753L16.6738 26.9968Z" fill="white"/>
<path fill-rule="evenodd" clip-rule="evenodd" d="M24.3116 22.0012C24.1272 21.8527 23.9111 21.7481 23.6801 21.6955C23.449 21.6429 23.2089 21.6437 22.9781 21.6977C22.6314 21.8415 22.4074 22.3846 22.1834 22.6562C22.1361 22.7213 22.0667 22.767 21.9882 22.7846C21.9096 22.8023 21.8273 22.7907 21.7567 22.7521C20.4874 22.2558 19.4234 21.3456 18.7376 20.1694C18.6792 20.096 18.6515 20.0028 18.6604 19.9094C18.6694 19.8161 18.7143 19.7298 18.7856 19.6688C19.0355 19.4219 19.219 19.116 19.319 18.7795C19.3413 18.4084 19.2561 18.0387 19.0737 17.7145C18.9327 17.26 18.6643 16.8554 18.3003 16.5483C18.1125 16.464 17.9043 16.4357 17.7008 16.4669C17.4973 16.4981 17.3072 16.5874 17.1535 16.724C16.8865 16.954 16.6746 17.2408 16.5333 17.5634C16.3921 17.8859 16.3251 18.236 16.3374 18.5878C16.3382 18.7854 16.3633 18.9821 16.412 19.1736C16.5359 19.6336 16.7264 20.0732 16.9774 20.4783C17.1586 20.7886 17.3562 21.089 17.5695 21.3782C18.2627 22.3282 19.134 23.1348 20.1351 23.7532C20.6375 24.0675 21.1744 24.323 21.7353 24.5147C22.318 24.7784 22.9613 24.8796 23.5969 24.8076C23.959 24.7529 24.3022 24.6101 24.5961 24.3919C24.89 24.1737 25.1257 23.8867 25.2824 23.5562C25.3745 23.3565 25.4025 23.1333 25.3624 22.9172C25.2664 22.4752 24.6743 22.2142 24.3116 22.0012Z" fill="white"/>
</g>
<defs>
<filter id="filter0_f_306_1893" x="0.868125" y="15.54" width="39.5313" height="28.8023" filterUnits="userSpaceOnUse" color-interpolation-filters="sRGB">
<feFlood flood-opacity="0" result="BackgroundImageFix"/>
<feBlend mode="normal" in="SourceGraphic" in2="BackgroundImageFix" result="shape"/>
<feGaussianBlur stdDeviation="2.73" result="effect1_foregroundBlur_306_1893"/>
</filter>
<filter id="filter1_i_306_1893" x="11.3398" y="11.3398" width="18.9004" height="19.3999" filterUnits="userSpaceOnUse" color-interpolation-filters="sRGB">
<feFlood flood-opacity="0" result="BackgroundImageFix"/>
<feBlend mode="normal" in="SourceGraphic" in2="BackgroundImageFix" result="shape"/>
<feColorMatrix in="SourceAlpha" type="matrix" values="0 0 0 0 0 0 0 0 0 0 0 0 0 0 0 0 0 0 127 0" result="hardAlpha"/>
<feOffset dy="0.5"/>
<feGaussianBlur stdDeviation="1.25"/>
<feComposite in2="hardAlpha" operator="arithmetic" k2="-1" k3="1"/>
<feColorMatrix type="matrix" values="0 0 0 0 0 0 0 0 0 0 0 0 0 0 0 0 0 0 0.1 0"/>
<feBlend mode="normal" in2="shape" result="effect1_innerShadow_306_1893"/>
</filter>
<linearGradient id="paint0_linear_306_1893" x1="3.53057" y1="2.75109" x2="34.7096" y2="42" gradientUnits="userSpaceOnUse">
<stop stop-color="#FBFBFC"/>
<stop offset="1" stop-color="#DBDDE8"/>
</linearGradient>
<linearGradient id="paint1_linear_306_1893" x1="22.6112" y1="39.4154" x2="16.7792" y2="18.8598" gradientUnits="userSpaceOnUse">
<stop stop-color="#00D95F"/>
<stop offset="1" stop-color="#07FF74"/>
</linearGradient>
<linearGradient id="paint2_linear_306_1893" x1="23.1009" y1="37.38" x2="8.61094" y2="5.45996" gradientUnits="userSpaceOnUse">
<stop stop-color="#00D95F"/>
<stop offset="1" stop-color="#07FF74"/>
</linearGradient>
<clipPath id="clip0_306_1893">
<rect width="18.9" height="18.9" fill="white" transform="translate(11.3398 11.3398)"/>
</clipPath>
</defs>
</svg>
