<svg width="12" height="12" viewBox="0 0 12 12" fill="none" xmlns="http://www.w3.org/2000/svg">
    <path
        d="M3.44908 4.55006L5.83406 3.49006C5.93906 3.44506 6.05907 3.44506 6.15907 3.49006L8.54408 4.55006C8.75408 4.64506 8.94906 4.39006 8.80406 4.21006L6.30406 1.15506C6.13406 0.945059 5.85407 0.945059 5.68407 1.15506L3.18407 4.21006C3.04407 4.39006 3.23908 4.64506 3.44908 4.55006Z"
        fill="#535157" />
    <path
        d="M3.4493 7.45L5.83929 8.51C5.94429 8.555 6.0643 8.555 6.1643 8.51L8.55428 7.45C8.76428 7.355 8.95929 7.61 8.81429 7.79L6.31429 10.845C6.14429 11.055 5.8643 11.055 5.6943 10.845L3.1943 7.79C3.0443 7.61 3.2343 7.355 3.4493 7.45Z"
        fill="#535157" />
    <path
        d="M5.8893 4.745L3.8243 5.775C3.6393 5.865 3.6393 6.13 3.8243 6.22L5.8893 7.25C5.9593 7.285 6.04428 7.285 6.11427 7.25L8.17928 6.22C8.36428 6.13 8.36428 5.865 8.17928 5.775L6.11427 4.745C6.03927 4.71 5.9593 4.71 5.8893 4.745Z"
        fill="#535157" />
</svg>