<svg viewBox="0 0 17 19" id="security" xmlns="http://www.w3.org/2000/svg">
    <path
        d="M15.6426 3.07998H15.6026C13.0426 3.07998 10.5626 2.00005 8.82257 0.120013C8.66255 -0.0400045 8.3626 -0.0400045 8.22253 0.120013C6.48257 1.99991 4.00253 3.07998 1.44253 3.07998H1.40249C1.18249 3.07998 0.982422 3.25995 0.982422 3.50005V8.04005C0.982422 11.7801 2.84235 15.26 5.94242 17.34L8.28242 18.92C8.34241 18.96 8.42249 18.9999 8.52238 18.9999C8.62241 18.9999 8.6824 18.98 8.76234 18.92L11.1023 17.34C14.2024 15.2601 16.0623 11.7801 16.0623 8.04005L16.0626 3.48005C16.0425 3.26004 15.8626 3.08009 15.6425 3.08009L15.6426 3.07998ZM8.52261 13.64C6.14257 13.64 4.20261 11.7 4.20261 9.31998C4.20261 6.93998 6.14261 4.99998 8.52261 4.99998C10.9026 4.99998 12.8426 6.93998 12.8426 9.31998C12.8426 11.7 10.9026 13.64 8.52261 13.64Z" />
    <path
        d="M9.783 7.47978L7.92292 9.51981L7.26292 8.79981C6.98293 8.49987 6.50289 8.47978 6.20292 8.75978C5.90298 9.03977 5.88289 9.51981 6.16288 9.81978L7.38288 11.1398C7.52295 11.2998 7.72287 11.3798 7.94288 11.3798C8.16289 11.3798 8.36296 11.2998 8.50288 11.1398L10.923 8.49974C11.2029 8.1998 11.183 7.71974 10.8829 7.43974C10.5429 7.15975 10.083 7.17984 9.78302 7.47978H9.783Z" />
</svg>