<svg viewBox="0 0 19 19" id="wallet" xmlns="http://www.w3.org/2000/svg">
    <path
        d="M12.6063 13.0199V10.8199C12.6063 9.5799 13.6262 8.55983 14.8663 8.55983H17.8263V6.93986C17.8263 6.0399 17.0863 5.29979 16.1862 5.29979V4.35979C16.1862 3.17983 15.2262 2.21972 14.0461 2.21972L11.6063 2.22L10.0062 0L6.90633 2.22H2.14633C1.00626 2.22 0.0664029 3.11996 0.0263672 4.23996V4.38003V17.06C0.0263672 18.12 0.886295 19 1.96637 19H15.8864C16.9464 19 17.8264 18.1401 17.8264 17.06V15.28H14.8664C13.6264 15.28 12.6064 14.28 12.6064 13.02L12.6063 13.0199ZM14.0463 3.41994C14.5662 3.41994 14.9863 3.84001 14.9863 4.35994V5.29979H13.8063L12.4663 3.41976L14.0463 3.41994ZM12.3263 5.29983H4.66626L9.72626 1.65983L12.3263 5.29983ZM2.14626 3.41994H5.2463L2.62633 5.29983H2.1463C1.62633 5.29983 1.2063 4.87976 1.2063 4.35983C1.2063 3.8399 1.62637 3.41997 2.1463 3.41997L2.14626 3.41994Z" />
    <path
        d="M18.4858 9.41992H14.8658C14.0858 9.41992 13.4658 10.0399 13.4658 10.8199V13.02C13.4658 13.8 14.0858 14.4199 14.8658 14.4199H18.4858C18.7458 14.4199 18.9658 14.1999 18.9658 13.9399V9.89989C18.9658 9.61989 18.7458 9.41996 18.4858 9.41996V9.41992ZM15.6259 12.9598C15.0659 12.9598 14.5858 12.4999 14.5858 11.9398C14.5858 11.3798 15.0458 10.8998 15.6259 10.8998C16.1859 10.8998 16.6458 11.3598 16.6458 11.9398C16.6658 12.4999 16.2058 12.9598 15.6259 12.9598Z" />
</svg>