<svg width="375" height="87" viewBox="0 0 375 87" fill="none" xmlns="http://www.w3.org/2000/svg">
<g filter="url(#filter0_b_337_8487)">
<mask id="path-1-outside-1_337_8487" maskUnits="userSpaceOnUse" x="-1" y="0" width="377" height="88" fill="black">
<rect fill="white" x="-1" width="377" height="88"/>
<path fill-rule="evenodd" clip-rule="evenodd" d="M175.449 13.0709C164.763 5.63488 159.419 1.91686 157.958 1.45843C156.497 1 154.898 1 151.7 1H30C15.8579 1 8.7868 1 4.3934 5.3934C0 9.7868 0 16.8579 0 31V67C0 76.4281 0 81.1421 2.92893 84.0711C5.85786 87 10.5719 87 20 87H355C364.428 87 369.142 87 372.071 84.0711C375 81.1421 375 76.4281 375 67V31C375 16.8579 375 9.7868 370.607 5.3934C366.213 1 359.142 1 345 1H224.3C221.102 1 219.503 1 218.042 1.45843C216.581 1.91686 211.237 5.63488 200.551 13.0709C196.991 15.5479 192.665 17 188 17C183.335 17 179.009 15.5479 175.449 13.0709Z"/>
</mask>
<path fill-rule="evenodd" clip-rule="evenodd" d="M175.449 13.0709C164.763 5.63488 159.419 1.91686 157.958 1.45843C156.497 1 154.898 1 151.7 1H30C15.8579 1 8.7868 1 4.3934 5.3934C0 9.7868 0 16.8579 0 31V67C0 76.4281 0 81.1421 2.92893 84.0711C5.85786 87 10.5719 87 20 87H355C364.428 87 369.142 87 372.071 84.0711C375 81.1421 375 76.4281 375 67V31C375 16.8579 375 9.7868 370.607 5.3934C366.213 1 359.142 1 345 1H224.3C221.102 1 219.503 1 218.042 1.45843C216.581 1.91686 211.237 5.63488 200.551 13.0709C196.991 15.5479 192.665 17 188 17C183.335 17 179.009 15.5479 175.449 13.0709Z" fill="url(#paint0_linear_337_8487)" fill-opacity="0.15"/>
<path d="M372.071 84.0711L372.778 84.7782L372.071 84.0711ZM200.551 13.0709L199.98 12.2501L200.551 13.0709ZM218.042 1.45843L217.743 0.504273L218.042 1.45843ZM2.92893 84.0711L2.22183 84.7782L2.92893 84.0711ZM175.449 13.0709L174.878 13.8918L175.449 13.0709ZM157.958 1.45843L157.659 2.41259L157.958 1.45843ZM30 2H151.7V0H30V2ZM5.1005 6.1005C7.08044 4.12057 9.70035 3.07452 13.6742 2.54026C17.6768 2.00212 22.9007 2 30 2V0C22.9572 0 17.5745 -0.00212371 13.4077 0.558092C9.21208 1.12218 6.09976 2.27282 3.68629 4.68629L5.1005 6.1005ZM1 31C1 23.9007 1.00212 18.6768 1.54026 14.6742C2.07452 10.7003 3.12057 8.08044 5.1005 6.1005L3.68629 4.68629C1.27282 7.09976 0.122175 10.2121 -0.441908 14.4077C-1.00212 18.5745 -1 23.9572 -1 31H1ZM1 67V31H-1V67H1ZM355 86H20V88H355V86ZM374 31V67H376V31H374ZM369.9 6.10051C371.879 8.08044 372.925 10.7004 373.46 14.6742C373.998 18.6768 374 23.9007 374 31H376C376 23.9572 376.002 18.5745 375.442 14.4077C374.878 10.2121 373.727 7.09976 371.314 4.68629L369.9 6.10051ZM345 2C352.099 2 357.323 2.00212 361.326 2.54026C365.3 3.07452 367.92 4.12057 369.9 6.10051L371.314 4.68629C368.9 2.27282 365.788 1.12218 361.592 0.558092C357.426 -0.00212371 352.043 0 345 0V2ZM224.3 2H345V0H224.3V2ZM199.98 12.2501C196.582 14.6142 192.455 16 188 16V18C192.876 18 197.4 16.4816 201.122 13.8918L199.98 12.2501ZM188 16C183.545 16 179.418 14.6142 176.02 12.2501L174.878 13.8918C178.6 16.4816 183.124 18 188 18V16ZM355 88C359.686 88 363.301 88.0021 366.106 87.625C368.94 87.2439 371.097 86.4594 372.778 84.7782L371.364 83.364C370.116 84.6117 368.452 85.2916 365.839 85.6428C363.198 85.9979 359.742 86 355 86V88ZM374 67C374 71.7423 373.998 75.1985 373.643 77.8395C373.292 80.4517 372.612 82.1163 371.364 83.364L372.778 84.7782C374.459 83.0969 375.244 80.94 375.625 78.106C376.002 75.3007 376 71.6858 376 67H374ZM224.3 0C221.165 0 219.384 -0.0107529 217.743 0.504273L218.341 2.41259C219.622 2.01075 221.039 2 224.3 2V0ZM201.122 13.8918C206.469 10.1714 210.468 7.38881 213.313 5.47831C214.737 4.52272 215.86 3.79287 216.713 3.27584C217.598 2.73983 218.108 2.48575 218.341 2.41259L217.743 0.504273C217.245 0.660322 216.539 1.04291 215.677 1.56534C214.783 2.10675 213.629 2.85711 212.198 3.81784C209.335 5.73997 205.32 8.53438 199.98 12.2501L201.122 13.8918ZM-1 67C-1 71.6858 -1.00212 75.3007 -0.624966 78.106C-0.243941 80.94 0.54059 83.0969 2.22183 84.7782L3.63604 83.364C2.38834 82.1163 1.70841 80.4517 1.3572 77.8395C1.00212 75.1985 1 71.7423 1 67H-1ZM20 86C15.2577 86 11.8015 85.9979 9.16053 85.6428C6.54828 85.2916 4.88374 84.6117 3.63604 83.364L2.22183 84.7782C3.90306 86.4594 6.06001 87.2439 8.89404 87.625C11.6993 88.0021 15.3142 88 20 88V86ZM151.7 2C154.961 2 156.378 2.01075 157.659 2.41259L158.257 0.504273C156.616 -0.0107529 154.835 0 151.7 0V2ZM176.02 12.2501C170.68 8.53438 166.665 5.73997 163.802 3.81784C162.371 2.85711 161.217 2.10675 160.323 1.56534C159.461 1.04291 158.755 0.660322 158.257 0.504273L157.659 2.41259C157.892 2.48575 158.402 2.73983 159.287 3.27584C160.14 3.79287 161.263 4.52272 162.687 5.47831C165.532 7.38881 169.531 10.1714 174.878 13.8918L176.02 12.2501Z" fill="url(#paint1_linear_337_8487)" mask="url(#path-1-outside-1_337_8487)"/>
</g>
<defs>
<filter id="filter0_b_337_8487" x="-47" y="-46" width="469" height="180" filterUnits="userSpaceOnUse" color-interpolation-filters="sRGB">
<feFlood flood-opacity="0" result="BackgroundImageFix"/>
<feGaussianBlur in="BackgroundImageFix" stdDeviation="23"/>
<feComposite in2="SourceAlpha" operator="in" result="effect1_backgroundBlur_337_8487"/>
<feBlend mode="normal" in="SourceGraphic" in2="effect1_backgroundBlur_337_8487" result="shape"/>
</filter>
<linearGradient id="paint0_linear_337_8487" x1="187.5" y1="-24.1892" x2="187.5" y2="106.041" gradientUnits="userSpaceOnUse">
<stop stop-color="#205DEE"/>
<stop offset="1" stop-color="#205DEE" stop-opacity="0"/>
</linearGradient>
<linearGradient id="paint1_linear_337_8487" x1="188" y1="-12.3231" x2="188" y2="32.4712" gradientUnits="userSpaceOnUse">
<stop stop-color="#205DEE"/>
<stop offset="1" stop-color="#205DEE" stop-opacity="0.1"/>
</linearGradient>
</defs>
</svg>
