<svg width="22" height="22" viewBox="0 0 22 22" fill="none" xmlns="http://www.w3.org/2000/svg">
<path d="M19.9927 3.61159C18.7918 6.60909 16.051 10.5233 13.4385 13.0808C13.0627 10.7158 11.1743 8.86409 8.79102 8.53409C11.3577 5.91242 15.2993 3.13492 18.306 1.92492C18.8377 1.72325 19.3693 1.87909 19.6993 2.20909C20.0477 2.55742 20.2127 3.07992 19.9927 3.61159Z" fill="#F8F8F8"/>
<path d="M12.631 13.8327C12.4477 13.9885 12.2644 14.1444 12.081 14.291L10.4402 15.6019C10.4402 15.5744 10.431 15.5377 10.431 15.501C10.3027 14.5202 9.84438 13.6127 9.10188 12.8702C8.35021 12.1185 7.41521 11.6602 6.38854 11.5319C6.36104 11.5319 6.32437 11.5227 6.29688 11.5227L7.62604 9.84521C7.75437 9.68021 7.89188 9.52438 8.03854 9.35938L8.66188 9.44188C10.6327 9.71688 12.2185 11.266 12.5302 13.2277L12.631 13.8327Z" fill="#F8F8F8"/>
<path d="M9.56127 16.1519C9.56127 17.1602 9.17627 18.1227 8.44294 18.8469C7.88377 19.4152 7.1321 19.8002 6.21544 19.9102L3.9696 20.1577C2.74127 20.2952 1.6871 19.2411 1.8246 18.0036L2.0721 15.7486C2.2921 13.7411 3.9696 12.4577 5.74794 12.4211C5.9221 12.4119 6.1146 12.4211 6.29794 12.4394C7.0771 12.5402 7.82877 12.8977 8.46127 13.5211C9.07544 14.1352 9.42377 14.8594 9.5246 15.6202C9.54294 15.8036 9.56127 15.9777 9.56127 16.1519Z" fill="#F8F8F8"/>
</svg>
