<svg width="249" height="199" viewBox="0 0 249 199" fill="none" xmlns="http://www.w3.org/2000/svg">
<g clip-path="url(#clip0_964_2425)">
<g filter="url(#filter0_b_964_2425)">
<path d="M13.836 198.607C9.55202 194.158 8.39508 188.681 5.83571 183.203C2.85015 176.815 0.902781 170.097 0.253278 163.034C-1.00822 149.312 2.40692 135.029 10.4913 123.897C14.3736 118.555 19.1661 113.933 22.8506 108.447C26.5351 102.961 29.0945 96.1849 27.6807 89.6921C26.2152 82.972 20.6549 76.953 21.9585 70.1981C23.2393 63.5609 30.3554 60.1881 36.5726 57.8412L101.466 33.3442C112.138 29.3149 123.017 23.986 134 21.007C143.396 18.4606 155.166 20.7223 164.478 23.0553C199.73 31.8758 230.023 59.6146 241.816 94.6481C253.608 129.682 246.232 170.901 222.581 198.999H222.004L162.844 198.889L65.4326 198.704C48.379 198.672 30.7697 197.825 13.8866 198.654L13.836 198.607Z" fill="url(#paint0_linear_964_2425)" fill-opacity="0.13"/>
</g>
<path d="M64.6467 30.9614H26.8266C15.7214 30.9614 6.71875 40.1491 6.71875 51.4825C6.71875 62.8158 15.7214 72.0029 26.8266 72.0029H61.5736L75.8769 79.6857L75.195 68.9572C80.9309 65.3431 84.754 58.8701 84.754 51.4854C84.7523 40.1497 75.7519 30.9614 64.6467 30.9614Z" fill="#205DEE"/>
<path d="M36.2433 53.604C38.0277 53.1741 39.1328 51.3495 38.7117 49.5284C38.2905 47.7074 36.5026 46.5796 34.7182 47.0094C32.9338 47.4392 31.8287 49.2638 32.2499 51.0849C32.671 52.9059 34.459 54.0338 36.2433 53.604Z" fill="#769FFF"/>
<path d="M46.2713 53.6435C48.081 53.3437 49.3099 51.6034 49.0161 49.7565C48.7224 47.9096 47.0172 46.6554 45.2075 46.9552C43.3977 47.255 42.1688 48.9953 42.4626 50.8422C42.7563 52.6891 44.4615 53.9433 46.2713 53.6435Z" fill="#769FFF"/>
<path d="M56.5242 53.643C58.3339 53.3432 59.5628 51.6029 59.2691 49.756C58.9753 47.9091 57.2701 46.6549 55.4604 46.9547C53.6507 47.2545 52.4217 48.9948 52.7155 50.8417C53.0093 52.6886 54.7145 53.9428 56.5242 53.643Z" fill="#769FFF"/>
<path d="M180.956 53.8225C182.682 52.4307 185.229 51.7348 184.915 49.0184C184.708 47.2207 182.934 45.7598 183.196 43.9731C183.378 42.7344 184.47 41.8912 185.236 40.9129C186.816 38.8965 187.033 35.8751 185.757 33.6447C185.203 32.6739 184.407 31.8644 183.853 30.8924C183.247 29.8289 183.24 28.8384 183.253 27.66C183.269 26.2073 183 24.7418 182.377 23.43C181.916 22.4564 181.26 21.593 180.45 20.8964C179.597 20.1691 178.635 19.7365 177.568 19.457C177.322 19.392 177.077 19.3294 176.835 19.2523C176.316 19.087 175.776 18.8388 175.424 18.3998C175.012 17.8877 174.89 17.1999 174.695 16.5858C174.183 14.9661 172.844 13.017 171.229 12.3594C170.458 12.0445 169.569 12.0479 168.775 11.6872C167.949 11.3135 167.205 10.7757 166.584 10.1052C165.84 9.29333 165.282 8.3005 164.425 7.61968C163.345 6.76314 161.895 6.50855 160.531 6.63381C159.414 6.73646 158.507 7.16908 157.456 7.47296C156.741 7.67999 156.279 7.56111 155.802 6.97307C154.359 5.19561 153.48 3.20359 151.63 1.74567C149.607 0.149732 146.733 -0.604163 144.451 0.575974C143.24 1.20229 142.217 2.33835 140.865 2.45723C138.819 2.63643 137.034 0.388079 135.031 0.841576C133.879 1.10254 133.105 2.17887 132.112 2.83012C130.608 3.81598 128.702 3.77887 126.918 3.89253C125.133 4.0062 123.153 4.43186 122.153 5.94429C121.512 6.91276 121.418 8.10681 121.064 9.19184C120.626 10.5315 119.659 11.381 118.369 11.8595C117.594 12.1494 116.817 12.2318 116.096 12.6795C114.799 13.4914 113.85 14.9412 113.691 16.4924C113.555 17.8263 113.906 19.2761 113.256 20.44C112.252 22.2377 109.463 22.2731 108.447 24.0633C107.853 25.1072 108.067 26.4184 108.277 27.6083C108.487 28.7983 108.653 30.1287 107.988 31.1308C107.174 32.3579 105.406 32.6299 104.609 33.8692C103.71 35.2685 104.405 37.1695 105.252 38.407C105.697 39.0589 106.253 39.6167 106.351 40.4426C106.655 42.9849 103.653 44.4834 103.677 47.0032C103.687 48.0656 104.035 49.1077 104.576 50.0077C105.137 50.9356 105.985 51.5155 106.638 52.3489C107.291 53.1822 107.783 54.1617 107.88 55.2172C108.017 56.725 107.336 58.224 107.512 59.7278C107.589 60.3482 107.809 60.9414 108.152 61.4595C108.496 61.9776 108.953 62.406 109.489 62.7103C110.361 63.1963 111.406 63.332 112.212 63.9241C113.381 64.7818 113.756 66.3493 114.15 67.7626C114.544 69.1758 115.191 70.7283 116.548 71.2195C117.551 71.5831 118.65 71.2514 119.703 71.1035C121.278 70.8825 122.715 71.6985 123.876 72.7273C125.265 73.9561 126.194 75.6129 127.399 77.0117C130.046 80.0853 134.124 81.6708 138.095 81.5432C139.152 81.509 140.141 81.2874 141.171 81.0897C142.43 80.8479 142.435 80.9157 143.66 81.3217C145.693 81.9961 147.832 81.7062 149.838 81.0578C152.338 80.2494 154.768 79.006 157.388 78.9527C159.486 78.9104 161.541 79.6416 163.639 79.6318C165.738 79.6219 168.124 78.4893 168.462 76.3755C168.706 74.8503 167.85 73.0746 168.772 71.8481C169.31 71.1325 170.254 70.9202 171.059 70.5508C171.865 70.1814 172.671 69.3655 172.412 68.5031C172.263 68.0079 171.805 67.6808 171.554 67.2273C170.929 66.1069 171.834 64.6455 172.996 64.1404C174.157 63.6353 175.472 63.7542 176.73 63.6527C177.988 63.5512 179.379 63.1023 179.936 61.9465C180.755 60.2468 179.294 58.2774 179.458 56.3909C179.562 55.2276 180.175 54.4528 180.956 53.8225Z" fill="#0B2E4E"/>
<path d="M109.439 62.8648C108.233 62.4954 106.867 62.0767 105.771 61.2173C104.521 60.2366 103.859 58.7526 104.087 57.4379C104.204 56.7606 104.533 56.1621 104.851 55.5822C105.222 54.9072 105.573 54.2693 105.55 53.5792C105.523 52.7447 104.899 51.891 103.882 51.2966C103.45 51.0449 102.996 50.8477 102.518 50.639C101.989 50.407 101.443 50.175 100.934 49.8572C99.7186 49.1033 99.0219 47.9945 99.0708 46.8898C99.1236 45.698 99.9913 44.7841 100.741 44.1212L100.992 43.9015C101.643 43.3343 102.315 42.7486 102.6 41.9802C102.993 40.9178 102.597 39.7086 102.213 38.5389C102.171 38.4106 102.13 38.2832 102.089 38.1568C101.476 36.243 101.616 34.755 102.494 33.8573C102.971 33.3695 103.596 33.1306 104.199 32.8992C104.836 32.6557 105.439 32.4254 105.782 31.9313C106.428 31.0035 105.805 29.607 105.507 29.0497C105.412 28.8717 105.309 28.689 105.208 28.5121C104.721 27.6515 104.217 26.7614 104.225 25.7285C104.235 24.4324 104.697 23.4123 105.638 22.6103C106.377 21.9788 107.276 21.6244 108.143 21.2765C108.355 21.1924 108.575 21.1025 108.787 21.0155C109.605 20.6676 110.75 20.0929 111.237 19.0652C111.687 18.1148 111.521 16.9891 111.351 15.7974C111.149 14.4189 110.941 12.9941 111.763 11.829C112.676 10.5335 114.403 10.3056 115.663 10.1385C117.028 9.95877 118.381 9.64561 118.984 8.60175C119.378 7.91861 119.36 7.06613 119.342 6.16261C119.32 5.11876 119.298 4.04475 119.939 3.17661C120.548 2.35196 121.676 1.92224 122.956 2.02779C123.663 2.08578 124.342 2.28005 124.999 2.46795C125.31 2.55667 125.63 2.64888 125.945 2.72311C127.094 2.99393 127.982 2.94928 128.661 2.58509C129.116 2.34268 129.491 1.95066 129.89 1.53544C130.451 0.952616 131.031 0.35008 131.86 0.156967C132.641 -0.0245477 133.527 0.214959 134.293 0.815176C134.946 1.32667 135.419 1.99705 135.875 2.6454L135.322 3.05135C134.894 2.44359 134.451 1.81554 133.878 1.36668C133.274 0.893464 132.594 0.699772 132.011 0.834893C131.377 0.982193 130.891 1.4873 130.377 2.02199C129.958 2.45751 129.525 2.90753 128.978 3.20096C128.148 3.64518 127.106 3.71071 125.792 3.40046C125.462 3.32275 125.133 3.22648 124.815 3.13717C124.16 2.94986 123.543 2.77298 122.902 2.72079C121.855 2.63438 120.951 2.96146 120.483 3.59473C119.984 4.27034 120.004 5.18255 120.024 6.14638C120.044 7.1102 120.064 8.10012 119.569 8.95319C118.816 10.2586 117.214 10.635 115.747 10.8263C114.326 11.0142 112.996 11.263 112.312 12.2332C111.652 13.1686 111.831 14.3946 112.021 15.6924C112.203 16.9364 112.39 18.2226 111.851 19.3656C111.262 20.6072 109.969 21.2678 109.047 21.6563C108.829 21.7485 108.605 21.8373 108.389 21.9231C107.537 22.2618 106.73 22.5819 106.075 23.1409C105.296 23.8038 104.915 24.6487 104.906 25.7303C104.9 26.5758 105.336 27.3465 105.798 28.1624C105.901 28.3434 106.006 28.5301 106.106 28.7151C106.552 29.5496 107.175 31.1293 106.337 32.3332C105.873 33.0013 105.144 33.2802 104.437 33.5511C103.876 33.7656 103.346 33.9686 102.975 34.3484C102.109 35.2334 102.367 36.7899 102.735 37.9405C102.775 38.0657 102.816 38.1916 102.858 38.318C103.259 39.5434 103.714 40.9323 103.235 42.2261C102.889 43.1615 102.148 43.8064 101.433 44.4298C101.35 44.5023 101.267 44.5742 101.185 44.6467C100.539 45.2185 99.7907 45.9938 99.7498 46.9205C99.7061 47.918 100.514 48.7838 101.284 49.2622C101.751 49.5522 102.25 49.7685 102.78 49.9982C103.258 50.2058 103.752 50.4198 104.218 50.6941C104.806 51.0374 106.18 52.0041 106.23 53.5571C106.258 54.4415 105.844 55.1948 105.444 55.9238C105.14 56.4759 104.853 56.9972 104.756 57.5586C104.573 58.621 105.133 59.8405 106.184 60.6652C107.181 61.4463 108.427 61.8285 109.633 62.1979L109.439 62.8648Z" fill="#0B2E4E"/>
<path d="M180.153 54.8378L179.902 54.1906C181.604 53.5052 183.364 52.7988 184.709 51.516C185.894 50.3881 186.847 48.4622 186.304 46.7027C186.121 46.11 185.773 45.5324 185.436 44.974C184.86 44.02 184.265 43.033 184.394 41.865C184.532 40.6286 185.411 39.7854 186.261 38.9706C186.875 38.382 187.511 37.7737 187.822 37.0401C188.491 35.4743 187.607 33.5971 186.748 32.2998C186.587 32.0568 186.416 31.8086 186.251 31.5686C185.367 30.2858 184.452 28.9589 184.291 27.363C184.229 26.7477 184.286 26.1341 184.342 25.5403C184.412 24.7992 184.477 24.0992 184.321 23.4282C183.909 21.6618 182.122 20.6121 180.479 19.7672C178.609 18.8051 176.737 17.7021 176.187 15.7431C176.004 15.093 175.986 14.3977 175.969 13.7256C175.941 12.6869 175.916 11.7063 175.287 11.062C174.643 10.4021 173.657 10.3887 172.616 10.3737C171.964 10.365 171.29 10.3551 170.657 10.1881C169.322 9.83548 168.358 8.83454 167.426 7.8684C166.918 7.34125 166.392 6.79555 165.82 6.37511C164.578 5.45999 162.912 5.1219 161.249 5.44723C159.585 5.77257 158.159 6.71494 157.336 8.0331L156.761 7.65905C157.684 6.18025 159.273 5.1248 161.12 4.76351C162.968 4.40222 164.826 4.78439 166.219 5.81084C166.837 6.26608 167.383 6.83266 167.911 7.38069C168.821 8.32248 169.676 9.21149 170.828 9.51595C171.381 9.66267 172.014 9.67137 172.625 9.68007C173.761 9.69573 174.932 9.71196 175.771 10.5726C176.592 11.4129 176.624 12.5797 176.652 13.7088C176.668 14.3374 176.685 14.9875 176.844 15.5529C177.318 17.2416 179.052 18.2548 180.788 19.1484C182.698 20.1308 184.529 21.3104 184.986 23.2693C185.168 24.0528 185.095 24.8438 185.023 25.6087C184.966 26.1944 184.916 26.7477 184.971 27.294C185.114 28.7095 185.976 29.9616 186.81 31.1707C186.977 31.4131 187.151 31.6637 187.315 31.9124C188.704 34.01 189.086 35.8298 188.451 37.3202C188.082 38.1854 187.395 38.8436 186.732 39.4798C185.936 40.2424 185.185 40.9632 185.076 41.9456C184.972 42.8735 185.481 43.7184 186.02 44.6133C186.379 45.2083 186.75 45.823 186.958 46.498C187.514 48.2992 186.815 50.4704 185.177 52.0293C183.735 53.3961 181.832 54.1622 180.153 54.8378Z" fill="#0B2E4E"/>
<path d="M121.324 18.731C120.927 20.1883 120.38 22.1647 119.973 23.6168C119.667 24.707 119.357 25.8129 118.77 26.793C118.549 27.1655 118.281 27.5075 117.975 27.8108C116.626 29.1051 114.746 29.4276 114.841 31.7252C114.886 32.8392 115.353 33.8611 115.724 34.9084C116.224 36.2811 116.414 37.634 115.649 38.962C115.057 40.0285 114.133 40.8398 113.313 41.7114C112.255 42.84 111.153 44.589 112.079 46.1078C112.644 47.016 113.578 47.5866 114.208 48.4501C116.179 51.0487 112.872 54.1954 114.355 56.627C115.131 57.8077 116.584 58.1928 117.624 59.0893C118.59 59.871 118.804 60.9613 119.117 62.0997C119.266 62.6384 119.479 63.1592 119.828 63.5941C120.165 64.0296 120.663 64.3712 121.225 64.3654C120.352 64.402 119.679 63.6695 119.309 62.9307C118.813 61.9315 118.741 60.7334 118.055 59.8403C117.543 59.1804 116.809 58.793 116.092 58.3905C115.366 57.9846 114.571 57.5398 114.092 56.8056C113.246 55.535 113.72 53.9269 114.08 52.5774C114.561 50.7796 114.797 49.476 113.335 48.112C112.835 47.6179 112.279 47.1609 111.857 46.581C111.834 46.5445 111.724 46.3798 111.703 46.3491C111.664 46.2777 111.606 46.171 111.568 46.0997C111.521 45.9953 111.477 45.8894 111.436 45.7819C110.975 44.4695 111.631 43.069 112.426 42.0524C113.279 40.9506 114.432 40.1149 115.163 38.9209C116.933 36.1604 113.935 33.7201 114.542 30.86C114.672 30.2696 114.98 29.7359 115.423 29.3342C116.244 28.5658 117.326 28.1657 118.06 27.3155C118.975 26.2676 119.39 24.8909 119.803 23.5739C120.248 22.1409 120.865 20.1697 121.322 18.7397L121.324 18.731Z" fill="#061F33"/>
<path d="M121.34 41.3861C120.069 40.2773 119.965 38.0603 121.116 36.8193C121.841 36.0427 122.851 35.6409 123.589 34.8997C123.889 34.5924 124.104 34.216 124.145 33.7863C124.23 32.7036 123.406 31.8111 123.425 30.7214C123.436 29.8103 124.155 29.2391 124.956 29.0153C125.67 28.7955 126.441 28.8355 127.144 28.6232C128.015 28.3785 128.467 27.689 128.556 26.7988C128.697 25.6077 128.244 24.4252 128.158 23.2375C128.04 21.8602 128.415 20.5061 129.845 20.0723C130.834 19.7557 131.921 19.9633 132.857 19.5098C134.085 18.8603 133.942 17.2713 134.128 16.0489C134.255 15.0531 134.562 14.1421 135.422 13.5639C136.757 12.6546 138.477 12.926 139.892 13.4549C141.5 14.0284 143.244 14.8873 144.946 14.2337C146.253 13.7083 147.168 12.5154 148.32 11.7203L148.51 11.5951L148.606 11.533L148.705 11.475L148.904 11.3631C149.14 11.2405 149.388 11.1418 149.643 11.0685C150.916 10.7142 152.348 11.0685 153.343 11.9482C153.457 12.0428 153.563 12.1588 153.665 12.2643L153.809 12.4383C153.832 12.4673 153.857 12.4963 153.88 12.5258L153.943 12.6198L154.068 12.8077C154.022 12.7445 153.915 12.5948 153.869 12.534C153.75 12.3901 153.621 12.2545 153.484 12.128C153.374 12.0273 153.259 11.9324 153.14 11.8439C153.056 11.783 152.949 11.7192 152.861 11.66C152.831 11.6391 152.797 11.6241 152.765 11.6055L152.57 11.5C151.524 10.9827 150.24 10.9067 149.184 11.4339C147.902 12.0642 147.04 13.2768 145.86 14.0696C144.46 15.0526 142.994 14.8995 141.455 14.41C139.826 13.8927 138.121 12.988 136.402 13.5517C135.802 13.746 135.274 14.1229 134.971 14.6704C134.292 15.9543 134.669 17.512 134.067 18.8458C133.403 20.2376 132.111 20.2318 130.804 20.3536C129.964 20.4301 129.16 20.6818 128.799 21.5262C128.352 22.6217 128.669 23.8517 128.869 24.9744C129.243 27.1827 128.852 28.9724 126.339 29.1701C125.823 29.2281 125.33 29.2559 124.847 29.4299C123.841 29.786 123.534 30.5318 123.885 31.5663C124.155 32.4264 124.658 33.3711 124.287 34.2879C124.051 34.8893 123.54 35.3016 123.033 35.6443C122.294 36.15 121.476 36.5305 120.948 37.2681C120.103 38.4929 120.245 40.3515 121.333 41.3821L121.34 41.3861Z" fill="#061F33"/>
<path d="M159.743 14.8649C161.212 14.6329 162.429 15.8368 163.138 17.0216C163.912 18.3316 164.296 19.8893 165.308 21.0422C166.496 22.4137 168.44 22.5604 169.789 23.7214C170.322 24.1763 170.678 24.8103 170.793 25.5093C170.928 26.2899 170.813 27.1046 170.76 27.873C170.731 28.337 170.72 28.8009 170.797 29.2405C171.094 30.8643 172.4 32.0189 173.476 33.1607C174.22 33.9471 174.924 34.8251 175.298 35.8649C175.73 37.1268 175.491 37.9526 174.992 39.1159C174.819 39.5486 174.67 39.9823 174.678 40.4138C174.693 41.3417 175.436 42.026 176.013 42.6952C176.288 43.0107 176.561 43.354 176.752 43.7344C177.449 45.1059 177.314 46.7715 176.752 48.1638C176.216 49.4977 175.34 50.6401 174.471 51.7593C175.012 50.9851 175.554 50.2086 176.005 49.3817C176.892 47.7898 177.379 45.752 176.565 44.0331C176.148 43.1678 175.393 42.6129 174.831 41.8398C174.535 41.4339 174.311 40.9415 174.298 40.4248C174.285 39.9081 174.445 39.4256 174.623 38.9657C175.036 37.9538 175.282 37.2561 174.944 36.1769C174.682 35.3528 174.182 34.643 173.626 33.9935C172.691 32.9236 171.557 32.0009 170.863 30.7257C170.352 29.8221 170.232 28.8606 170.324 27.8423C170.371 27.1307 170.479 26.447 170.402 25.7494C170.343 25.0811 170.029 24.4632 169.529 24.0276C168.842 23.4233 167.954 23.0933 167.131 22.6938C166.382 22.3458 165.619 21.9057 165.078 21.2475C163.771 19.6886 163.572 17.4687 162.18 15.9731C161.566 15.2847 160.685 14.7495 159.744 14.8637L159.743 14.8649Z" fill="#061F33"/>
<path d="M124.168 49.8716C124.604 51.1342 125.455 52.2033 126.577 52.8965C127.699 53.5897 129.022 53.8639 130.32 53.6724C130.434 55.6209 131.732 57.258 132.969 58.7472C134.282 60.3269 135.603 61.9159 137.159 63.2457C138.714 64.5754 140.534 65.6466 142.528 66.0293C142.558 66.4196 142.564 66.7507 142.593 67.1416L143.079 73.8037C140.149 75.5823 136.065 75.217 133.267 73.2278C131.977 72.3098 130.928 71.0485 129.553 70.2703C128.246 69.5309 126.589 69.1719 125.819 67.863C124.574 65.744 126.581 62.7423 125.321 60.6314C124.719 59.6224 123.494 59.0969 122.991 58.0328C122.546 57.0916 122.779 55.9793 123.019 54.9639C123.43 53.2247 123.757 51.6108 124.168 49.8716Z" fill="#061F33"/>
<path d="M161.47 60.7152C162.42 59.4394 163.939 58.5562 164.647 57.1046C165.296 55.7708 165.154 54.1992 164.995 52.7199C164.851 51.375 164.555 49.8006 163.354 49.2282C162.641 48.8889 161.781 49.0252 161.081 49.3929C160.45 49.724 160.04 50.3207 159.452 50.6803C159.001 50.9557 158.439 51.0439 157.966 51.3257C156.905 51.9596 156.047 52.8955 155.499 54.0189C154.665 55.7528 155.008 57.644 154.089 59.2799C153.028 61.1687 152.241 63.1236 151.937 65.2937C151.64 67.4168 151.777 69.5747 151.841 71.7186C154.013 71.0042 155.833 69.4952 157.597 68.0182C158.573 67.2005 159.585 66.3364 160.071 65.1452C160.536 64.0074 160.464 62.6933 160.962 61.5694C161.099 61.2659 161.269 60.9793 161.47 60.7152V60.7152Z" fill="#061F33"/>
<path d="M165.779 39.8409C166.226 40.0386 166.5 40.466 166.709 40.8923C168.029 43.5889 167.493 47.1055 165.391 49.5238C164.939 50.0457 164.395 50.5305 163.729 50.7335C163.063 50.9365 162.259 50.7793 161.921 50.229C161.694 49.8555 161.709 49.384 161.733 48.9392C161.813 47.4349 161.894 45.9237 162.255 44.4379C162.513 43.3743 162.922 42.3229 163.545 41.3835C164.01 40.6818 164.736 39.3793 165.779 39.8409Z" fill="#E5775C"/>
<path d="M155.123 79.2232C154.13 80.1447 152.667 80.6649 151.339 80.8684C150.011 81.072 148.659 81.0036 147.319 80.9212C142.637 80.6313 137.652 79.5294 133.004 78.899C134.27 77.4846 135.675 76.2094 135.878 74.3043C136.08 72.3993 136.403 70.2449 136.213 68.3416C135.99 66.0979 135.588 63.7962 134.673 61.3779C140.517 64.3935 146.799 65.507 153.287 64.6011C153.248 64.9529 153.214 65.3067 153.187 65.6624C153.062 67.2251 153.049 68.795 153.148 70.3597C153.344 73.4101 153.981 76.4321 155.123 79.2232Z" fill="#F9A17B"/>
<path d="M153.149 70.3594C148.609 69.395 140.808 69.5365 136.574 62.9185C140.63 64.5672 148.866 66.1532 153.188 65.6626C153.063 67.2252 153.05 68.7949 153.149 70.3594V70.3594Z" fill="#E5775C"/>
<path d="M163.559 48.2107C163.124 48.2176 162.7 48.0729 162.357 47.8007L162.642 47.4365C163.342 48.0019 164.454 47.7235 165.053 47.1088C165.621 46.5289 165.948 45.6358 166.029 44.4615C166.061 44.0062 166.066 43.4223 165.825 42.9386C165.482 42.2427 164.612 41.8745 163.887 42.1105L163.749 41.668C164.677 41.3659 165.791 41.842 166.231 42.7293C166.522 43.3138 166.518 43.9796 166.482 44.494C166.394 45.7825 166.021 46.7725 165.375 47.4359C164.89 47.9231 164.239 48.2007 163.559 48.2107V48.2107Z" fill="#2E150B"/>
<path d="M162.106 27.4452C161.1 25.6973 159.726 24.1634 158.059 23.0651C156.571 22.0942 154.886 21.4821 153.131 21.2754C152.274 21.1717 151.408 21.1646 150.549 21.254C149.798 21.3334 148.954 21.7307 148.222 21.6785C146.978 21.5903 145.75 20.5766 144.606 21.0771C143.149 21.715 143.433 24.0417 142.307 25.1812C141.307 26.1943 139.572 26.1352 138.303 26.5115C137.936 26.6206 137.588 26.867 137.451 27.2306C137.26 27.734 137.508 28.2878 137.568 28.8248C137.608 29.2546 137.528 29.6873 137.335 30.0717C137.142 30.4562 136.846 30.7763 136.481 30.9943C136.101 31.2129 135.628 31.3423 135.414 31.7302C135.129 32.2522 135.483 32.9156 135.339 33.4932C135.204 34.029 134.682 34.3549 134.192 34.5904C133.701 34.8258 133.16 35.0607 132.896 35.5432C132.68 35.9375 132.696 36.4131 132.612 36.859C132.232 38.8174 129.187 38.4248 128.604 40.3014C128.231 41.4978 129.244 42.8618 128.728 44.0008C128.155 45.265 126.285 45.1357 125.29 46.0885C124.665 46.6916 124.487 47.6363 124.463 48.5154C124.444 49.1887 124.399 49.8852 124.406 50.555C124.415 51.2028 124.928 51.6476 125.395 52.0257C126.094 52.5917 126.811 53.1577 127.641 53.4894C128.471 53.8211 129.444 53.8919 130.235 53.472C129.769 53.719 132.316 57.6683 132.512 58.076C133.115 59.3373 133.674 60.3556 134.621 61.4169C136.709 63.7557 139.321 65.6561 142.293 66.6194C146.282 67.9132 150.939 67.3559 154.195 64.6702C155.786 63.3567 156.985 61.6176 158.063 59.8407C160.506 55.8116 162.436 51.4815 163.808 46.9549C164.764 43.7955 164.91 40.4151 164.671 37.1357C164.56 35.6244 164.251 34.2105 163.989 32.7283C163.704 31.0859 163.176 29.4973 162.423 28.017C162.321 27.8256 162.215 27.635 162.106 27.4452Z" fill="#F9A17B"/>
<path d="M128.275 51.4255C127.919 51.4266 127.57 51.3337 127.26 51.1559C126.648 50.7957 126.175 50.1387 125.856 49.2033C125.728 48.8287 125.594 48.3334 125.695 47.8353C125.849 47.0727 126.596 46.4794 127.356 46.5136L127.336 46.9776C126.788 46.9526 126.251 47.38 126.14 47.9286C126.061 48.3166 126.177 48.7318 126.285 49.0508C126.569 49.8777 126.972 50.4513 127.487 50.7546C128.022 51.0695 128.851 51.0509 129.238 50.5226L129.603 50.7986C129.285 51.2359 128.78 51.4255 128.275 51.4255Z" fill="#2E150B"/>
<path d="M149.613 51.2262L149.321 50.8713C149.789 50.4634 150.166 49.9567 150.425 49.3861C150.684 48.8155 150.818 48.1945 150.82 47.5658C150.815 45.8904 149.839 44.3084 149.055 43.0372L149.439 42.7896C150.254 44.1112 151.269 45.7558 151.274 47.564C151.273 48.2606 151.124 48.9487 150.837 49.5809C150.55 50.213 150.133 50.7743 149.613 51.2262V51.2262Z" fill="#2E150B"/>
<path d="M140.017 48.7462C136.568 48.7462 133.763 45.2864 133.763 41.0332C133.763 36.7801 136.568 33.3203 140.017 33.3203C143.465 33.3203 146.271 36.7807 146.271 41.0332C146.271 45.2858 143.466 48.7462 140.017 48.7462ZM140.017 33.7842C136.819 33.7842 134.217 37.0364 134.217 41.0332C134.217 45.0301 136.819 48.2822 140.017 48.2822C143.215 48.2822 145.817 45.0306 145.817 41.0332C145.817 37.0359 143.215 33.7842 140.017 33.7842Z" fill="#2E150B"/>
<path d="M157.047 49.1803C153.821 49.1803 151.194 45.7205 151.194 41.4673C151.194 37.2142 153.819 33.7544 157.047 33.7544C160.275 33.7544 162.897 37.2148 162.897 41.4673C162.897 45.7199 160.272 49.1803 157.047 49.1803ZM157.047 34.2183C154.072 34.2183 151.649 37.4705 151.649 41.4673C151.649 45.4641 154.07 48.7163 157.047 48.7163C160.025 48.7163 162.443 45.4647 162.443 41.4673C162.443 37.4699 160.022 34.2183 157.047 34.2183Z" fill="#2E150B"/>
<path d="M146.119 42.1394L145.787 41.8228C146.338 41.2203 146.94 40.7749 147.575 40.4994C148.34 40.1671 149.162 40.0807 149.889 40.2564C150.72 40.4577 151.391 41.0103 151.641 41.6946L151.214 41.8559C151.02 41.3218 150.459 40.87 149.785 40.7082C149.151 40.5551 148.429 40.6322 147.753 40.9263C147.177 41.1762 146.627 41.5845 146.119 42.1394Z" fill="#2E150B"/>
<path d="M140.875 44.4058C140.322 44.396 139.787 44.2055 139.347 43.8624C138.695 43.366 138.263 42.6446 137.893 41.9359L138.294 41.7173C138.639 42.3772 139.039 43.0511 139.619 43.4907C140.122 43.8734 140.913 44.1135 141.544 43.787C142.219 43.4391 142.514 42.5953 142.76 41.7625L143.195 41.8959C142.922 42.8238 142.585 43.7685 141.75 44.2005C141.478 44.3384 141.179 44.4087 140.875 44.4058V44.4058Z" fill="#2E150B"/>
<path d="M157.691 44.0433C157.222 44.0419 156.761 43.9194 156.351 43.6873C155.765 43.355 155.272 42.8174 154.931 42.125L155.336 41.915C155.638 42.5216 156.065 42.9943 156.572 43.2819C157.12 43.5928 157.765 43.6681 158.305 43.4843C158.873 43.2906 159.321 42.7884 159.421 42.2299L159.868 42.3135C159.737 43.0418 159.181 43.6745 158.448 43.9245C158.203 44.0053 157.948 44.0455 157.691 44.0433V44.0433Z" fill="#2E150B"/>
<path d="M142.313 37.9771C140.771 38.1621 139.321 38.5495 137.963 39.3063C137.516 39.5487 137.084 39.8282 136.628 40.1321C137.631 38.1783 140.303 37.1693 142.31 37.9771H142.313Z" fill="#2E150B"/>
<path d="M153.823 37.3659C155.471 35.8413 158.398 35.8111 160.074 37.3079C159.528 37.182 159.012 37.0701 158.492 37.0017C156.912 36.7761 155.372 36.9489 153.824 37.3659H153.823Z" fill="#2E150B"/>
<path d="M133.96 41.25L127.177 42.3887L127.251 42.8465L134.034 41.7078L133.96 41.25Z" fill="#2E150B"/>
<path d="M197.255 102.352L212.475 166.038C200.518 165.135 187.78 166.197 176.073 168.838C173.583 157.435 171.092 146.031 168.601 134.628C167.006 127.326 174.026 120.415 177.116 113.631C179.022 109.45 181.245 105.205 184.901 102.496C188.558 99.7875 193.817 99.3595 197.255 102.352Z" fill="#F9A17B"/>
<path d="M195.169 108.086C195.124 108.112 195.079 108.14 195.033 108.165C192.365 109.731 189.412 110.839 186.353 111.239C186.79 112.021 187.168 112.837 187.482 113.679C189.528 119.134 188.867 125.443 185.286 130.091C186.19 143.084 185.136 157.401 185.165 170.427C185.185 179.255 183.248 188.023 182.464 196.814L120.628 197.479C118.154 176.123 117.462 154.268 118.713 132.801C110.758 131.757 102.713 130.688 95.2086 127.788C91.5315 126.366 88.0198 124.581 84.7529 122.343C87.647 111.355 90.8167 99.8579 98.5709 91.6822C103.966 85.999 110.513 82.8326 117.639 79.7115L118.018 79.5648L122.245 78.079L128.472 75.8887L134.094 73.9123C134.261 73.8143 134.424 73.7383 134.522 73.6067C137.079 75.3012 140.148 75.5889 143.187 75.8487C145.189 76.0192 147.218 76.1885 149.191 75.804C151.164 75.4195 153.055 74.4656 154.131 72.7368L162.715 74.6372C163.322 74.771 163.929 74.9063 164.537 75.0432L173.576 77.0491C177.632 77.9491 182.474 78.079 185.549 80.9247C189.644 84.7206 193.256 89.0263 196.299 93.7409C197.918 96.2468 200.11 99.2786 200.933 102.187C201.588 104.498 196.827 107.102 195.169 108.086Z" fill="#E4761B"/>
<path d="M190.421 192.928C187.913 192.945 185.405 192.961 182.898 192.977C162 193.114 141.103 193.249 120.206 193.383L118.471 193.394C108.759 193.457 98.0788 193.169 90.8138 186.591C86.8072 182.963 84.3773 177.784 83.2176 172.448C82.0578 167.112 82.0737 161.585 82.3209 156.125C82.8191 145.139 84.2246 134.216 86.5225 123.471C86.7316 123.601 86.9424 123.729 87.1532 123.856C89.7342 125.396 92.4387 126.709 95.2376 127.781C101.518 130.208 109.823 131.579 116.493 132.501C115.925 134.479 114.737 139.743 114.277 141.757C112.374 150.039 111.758 152.448 111.456 160.894C114.195 161.182 116.936 161.442 119.681 161.672C141.956 163.538 162.986 166.094 185.25 164.09C186.734 163.957 188.217 163.815 189.699 163.664L190.421 192.928Z" fill="#F9A17B"/>
<path d="M130.646 110.14C123.876 100.887 114.198 93.8981 103.396 90.4615L103.531 90.019C114.425 93.4841 124.184 100.531 131.01 109.862L130.646 110.14Z" fill="#FF922D"/>
<path d="M180.917 100.314C180.474 97.3275 180.633 94.1623 181.381 91.1595C182.128 88.1566 183.464 85.2959 185.245 82.8857L185.608 83.1653C183.827 85.5834 182.535 88.3384 181.807 91.2703C181.078 94.2023 180.928 97.2527 181.364 100.244L180.917 100.314Z" fill="#FF922D"/>
<path d="M186.213 111.428C185.196 110.109 184.483 108.573 184.126 106.934C183.769 105.295 183.777 103.595 184.151 101.96L184.593 102.069C183.86 105.171 184.617 108.646 186.568 111.138L186.213 111.428Z" fill="#FF922D"/>
<path d="M138.549 134.27C135.887 134.278 133.245 133.799 130.748 132.857L130.907 132.422C138.357 135.259 147.4 133.594 153.41 128.28L153.707 128.631C150.68 131.308 146.902 133.123 142.782 133.881C141.385 134.139 139.969 134.269 138.549 134.27V134.27Z" fill="#FF922D"/>
<path d="M118.927 132.875L118.5 132.717C120.412 127.353 121.314 122.375 121.613 115.534L122.068 115.555C121.766 122.446 120.856 127.464 118.927 132.875Z" fill="#FF922D"/>
<path d="M121.347 123.317L120.915 123.173C121.634 120.919 123.199 118.93 125.439 117.42C127.491 116.038 129.815 115.147 132.061 114.289L132.221 114.723C129.997 115.575 127.699 116.456 125.69 117.81C124.189 118.819 122.217 120.596 121.347 123.317Z" fill="#FF922D"/>
<path d="M127.44 88.4881C126.815 88.4881 126.19 88.1981 125.823 87.6762C125.238 86.8423 125.408 85.5641 126.195 84.8845C126.25 84.8342 126.314 84.7948 126.384 84.7685C126.436 84.7493 126.49 84.7337 126.543 84.7186C126.595 84.7035 126.656 84.6844 126.705 84.6658C127.61 84.3092 128.734 84.7604 129.159 85.6517C129.583 86.543 129.238 87.7232 128.404 88.23C128.111 88.4032 127.778 88.4923 127.44 88.4881V88.4881ZM126.557 85.2562C126.549 85.2614 126.532 85.2753 126.525 85.2817C125.944 85.7839 125.81 86.7605 126.241 87.3694C126.65 87.9534 127.54 88.143 128.145 87.7754C128.749 87.4077 129.009 86.5193 128.701 85.8738C128.393 85.2284 127.548 84.888 126.892 85.1472C126.823 85.1739 126.753 85.1947 126.686 85.2144C126.638 85.2301 126.595 85.2429 126.557 85.2562Z" fill="white"/>
<path d="M141.482 94.9086C140.83 94.9086 140.142 94.6117 139.56 94.0637C139.01 93.5418 138.589 92.5037 138.868 91.7272C139.045 91.2343 139.476 90.9489 140.08 90.9234C140.885 90.8886 142.798 91.7237 143.194 92.5727C143.372 92.9543 143.364 93.3991 143.171 93.8242C143.06 94.0681 142.899 94.2849 142.7 94.46C142.5 94.6351 142.265 94.7643 142.012 94.839C141.839 94.8858 141.661 94.9092 141.482 94.9086V94.9086ZM139.907 93.6803C140.381 94.1269 141.149 94.5334 141.881 94.3345C142.062 94.2803 142.229 94.1871 142.372 94.0612C142.514 93.9354 142.629 93.7798 142.707 93.605C142.834 93.3231 142.844 93.0361 142.732 92.7971C142.462 92.2201 140.776 91.4163 140.101 91.4448C139.706 91.4616 139.452 91.6187 139.348 91.9087C139.169 92.4039 139.431 93.2327 139.907 93.6821V93.6803Z" fill="white"/>
<path d="M155.272 91.145C155.219 91.145 155.165 91.145 155.109 91.1398C154.405 91.0951 153.814 90.6758 153.49 89.984C153.144 89.2504 153.178 88.3724 153.573 87.7988C153.898 87.3268 154.431 87.1029 155.074 87.1719C156.377 87.3088 157.063 88.4965 156.978 89.5658C156.92 90.3093 156.434 91.145 155.272 91.145ZM154.852 87.6817C154.476 87.6817 154.18 87.8243 153.991 88.0992C153.707 88.5162 153.687 89.2011 153.951 89.7584C154.093 90.0605 154.437 90.5743 155.141 90.619C156.287 90.6921 156.448 89.7984 156.469 89.5229C156.535 88.7041 156.014 87.7948 155.021 87.691C154.965 87.6848 154.909 87.6817 154.853 87.6817H154.852Z" fill="white"/>
<path d="M167.427 82.6839C167.159 82.6766 166.895 82.6145 166.651 82.5013C165.811 82.1394 165.191 81.095 165.35 80.3109C165.404 80.0436 165.64 79.4248 166.661 79.4248H166.68C167.582 79.4318 168.621 80.3921 168.74 81.3281C168.821 81.966 168.467 82.4444 167.768 82.6376C167.657 82.6684 167.542 82.684 167.427 82.6839V82.6839ZM166.66 79.9467C166.186 79.9467 165.914 80.105 165.851 80.4165C165.74 80.961 166.236 81.7555 166.85 82.0205C167.16 82.1545 167.425 82.1945 167.635 82.1365C168.084 82.0118 168.28 81.77 168.233 81.3977C168.153 80.7696 167.384 79.9543 166.677 79.9479L166.66 79.9467Z" fill="white"/>
<path d="M170.165 93.5544C169.854 93.5544 169.506 93.4784 169.115 93.3265C168.795 93.2018 168.394 93.0127 168.145 92.6543C167.834 92.2072 167.797 91.5276 168.053 90.9621C168.273 90.4762 168.663 90.1734 169.123 90.1317C170.213 90.0325 171.473 90.5701 171.66 91.7607C171.761 92.4044 171.446 93.0829 170.911 93.3734C170.681 93.4964 170.425 93.5586 170.165 93.5544V93.5544ZM168.562 92.3522C168.733 92.5946 169.028 92.7344 169.297 92.8388C169.89 93.0707 170.339 93.0939 170.67 92.913C171.019 92.7239 171.222 92.2751 171.154 91.843C171.017 90.9645 170.028 90.5736 169.166 90.6513C168.792 90.6855 168.597 90.9993 168.515 91.1813C168.336 91.5757 168.355 92.0576 168.56 92.3522H168.562Z" fill="white"/>
<path d="M154.087 105.242C153.868 105.241 153.651 105.202 153.445 105.126C152.623 104.828 151.871 103.931 152.024 102.792C152.119 102.072 152.633 101.592 153.396 101.507C154.308 101.407 155.506 101.907 155.831 102.814C155.993 103.267 155.916 103.811 155.62 104.307C155.255 104.913 154.703 105.242 154.087 105.242ZM153.642 102.015C153.578 102.015 153.513 102.018 153.449 102.025C153.074 102.066 152.611 102.245 152.529 102.861C152.415 103.724 152.989 104.406 153.616 104.633C154.244 104.86 154.823 104.633 155.182 104.034C155.393 103.68 155.456 103.291 155.349 102.99C155.153 102.448 154.374 102.015 153.642 102.015Z" fill="white"/>
<path d="M130.883 101.451C130.796 101.451 130.707 101.448 130.614 101.442C130.155 101.412 129.558 101.346 129.011 101.098C128.432 100.835 127.988 100.389 127.79 99.8739C127.577 99.3207 127.655 98.7599 128.002 98.3337C128.41 97.8332 129.114 97.596 129.796 97.7305C130.333 97.8361 130.797 98.1394 131.207 98.4067C131.559 98.6387 131.958 98.8974 132.234 99.29C132.566 99.7632 132.625 100.346 132.386 100.775C132.134 101.224 131.629 101.451 130.883 101.451ZM129.421 98.2159C129.018 98.2159 128.625 98.3824 128.398 98.6677C128.237 98.8655 128.084 99.2018 128.269 99.6831C128.417 100.072 128.765 100.413 129.222 100.621C129.694 100.835 130.234 100.894 130.65 100.921C131.119 100.952 131.725 100.907 131.944 100.515C132.105 100.225 132.001 99.8455 131.821 99.5933C131.603 99.2818 131.263 99.0603 130.934 98.8457C130.545 98.5917 130.143 98.329 129.702 98.242C129.61 98.2243 129.515 98.2155 129.421 98.2159V98.2159Z" fill="white"/>
<path d="M103.317 101.594C102.988 101.597 102.663 101.53 102.361 101.398C102.059 101.265 101.788 101.071 101.563 100.827V100.827C101.041 100.241 100.637 98.8728 101.218 98.1444C101.695 97.5453 102.941 97.3905 103.502 97.4404C103.889 97.4762 104.265 97.5894 104.609 97.7737C104.953 97.958 105.258 98.2097 105.507 98.5144L105.542 98.559L105.557 98.617C105.821 99.6493 105.33 100.811 104.409 101.32C104.073 101.503 103.698 101.597 103.317 101.594V101.594ZM103.276 97.953C102.721 97.953 101.886 98.1334 101.615 98.4749C101.235 98.951 101.54 100.027 101.941 100.476C102.482 101.083 103.459 101.252 104.166 100.86C104.855 100.479 105.245 99.5843 105.075 98.8037C104.66 98.3236 104.081 98.0226 103.457 97.9617C103.402 97.9553 103.34 97.953 103.277 97.953H103.276Z" fill="white"/>
<path d="M117.614 112.606C117.237 112.603 116.864 112.52 116.519 112.363V112.363C115.8 112.04 115.173 111.28 114.997 110.514C114.869 109.958 114.98 109.445 115.318 109.03C115.641 108.634 116.144 108.409 116.775 108.379C117.622 108.338 118.566 108.669 119.071 109.181C119.611 109.73 119.825 110.527 119.616 111.211C119.434 111.807 118.931 112.301 118.304 112.5C118.081 112.57 117.848 112.606 117.614 112.606V112.606ZM116.725 111.886C117.197 112.098 117.718 112.141 118.153 112.002C118.621 111.853 118.995 111.49 119.128 111.056C119.278 110.562 119.111 109.957 118.71 109.548C118.309 109.139 117.502 108.863 116.799 108.897C116.462 108.913 116 109.006 115.711 109.361C115.476 109.651 115.403 109.999 115.495 110.392C115.635 110.999 116.152 111.626 116.725 111.883V111.886Z" fill="white"/>
<path d="M103.395 120.186C103.052 120.185 102.715 120.1 102.411 119.937C101.735 119.575 101.015 118.57 100.772 117.648C100.615 117.054 100.661 116.531 100.905 116.135C101.129 115.773 101.496 115.576 101.966 115.564C103.023 115.539 104.35 116.439 104.763 117.045C105.298 117.828 105.337 119.115 104.544 119.785C104.219 120.051 103.812 120.193 103.395 120.186V120.186ZM102.008 116.086H101.978C101.679 116.093 101.47 116.202 101.338 116.414C101.128 116.753 101.183 117.199 101.266 117.515C101.493 118.367 102.162 119.217 102.648 119.477C103.175 119.758 103.821 119.721 104.218 119.386C104.794 118.9 104.748 117.936 104.344 117.347C103.999 116.84 102.826 116.086 102.008 116.086Z" fill="white"/>
<path d="M190.653 100.357C190.565 100.357 190.477 100.351 190.39 100.34C189.662 100.251 189.036 99.7871 188.795 99.1597C188.581 98.6035 188.692 97.6182 189.354 97.3416C189.826 97.1444 190.686 97.1862 191.126 97.2917C191.751 97.4413 192.239 97.8902 192.376 98.4348C192.507 98.9613 192.3 99.565 191.86 99.9367C191.518 100.215 191.091 100.364 190.653 100.357ZM189.271 98.9694C189.441 99.4137 189.916 99.7564 190.451 99.8225C190.863 99.8735 191.258 99.7686 191.531 99.5325C191.815 99.2907 191.959 98.8911 191.877 98.5612C191.776 98.1552 191.366 97.8838 191.006 97.7974C190.595 97.6983 189.87 97.6878 189.546 97.8224C189.211 97.9627 189.137 98.625 189.269 98.9671L189.271 98.9694Z" fill="white"/>
<path d="M174.577 108.706C173.865 108.706 173.149 108.349 172.645 107.878C171.787 107.076 171.555 106.004 172.053 105.148C172.507 104.364 173.38 104.03 174.382 104.252C175.366 104.471 176.423 105.277 176.542 106.398C176.621 107.152 176.296 107.914 175.714 108.339C175.382 108.581 174.984 108.709 174.577 108.706V108.706ZM173.8 104.708C173.232 104.708 172.761 104.956 172.493 105.414C172.046 106.184 172.457 106.993 172.991 107.494C173.645 108.106 174.689 108.447 175.419 107.913C175.847 107.601 176.096 107.013 176.036 106.452C175.944 105.579 175.082 104.941 174.275 104.763C174.119 104.727 173.96 104.709 173.8 104.708V104.708Z" fill="white"/>
<path d="M144.909 119.425C144.799 119.425 144.685 119.419 144.568 119.409C143.869 119.347 143.347 119.15 142.974 118.805C142.487 118.355 142.229 117.423 142.317 116.428C142.396 115.538 142.733 114.843 143.242 114.52C143.692 114.235 144.219 114.208 144.766 114.443C145.762 114.872 146.632 116.076 146.818 116.932C146.959 117.58 146.894 118.461 146.289 118.987C145.952 119.278 145.491 119.425 144.909 119.425ZM143.315 118.418C143.602 118.683 144.025 118.837 144.61 118.889C145.214 118.943 145.666 118.842 145.955 118.592C146.388 118.215 146.42 117.524 146.316 117.047C146.161 116.334 145.379 115.276 144.565 114.926C144.172 114.757 143.816 114.77 143.509 114.966C143.143 115.198 142.887 115.762 142.824 116.473C142.752 117.285 142.954 118.083 143.315 118.416V118.418Z" fill="white"/>
<path d="M165.466 118.897C164.831 118.897 164.216 118.515 163.973 117.937C163.669 117.217 163.909 116.51 164.599 116.092C165.337 115.644 166.485 115.614 167.048 116.346C167.281 116.65 167.332 117.086 167.188 117.543C166.972 118.232 166.382 118.767 165.719 118.877C165.635 118.891 165.551 118.897 165.466 118.897V118.897ZM164.443 117.731C164.627 118.165 165.152 118.442 165.637 118.361C166.121 118.281 166.541 117.89 166.7 117.384C166.79 117.098 166.769 116.83 166.644 116.669C166.27 116.182 165.403 116.211 164.858 116.541C164.585 116.706 164.167 117.082 164.441 117.731H164.443Z" fill="white"/>
<path d="M181.375 121.549C181.268 121.549 181.161 121.54 181.056 121.523C180.752 121.469 180.462 121.353 180.203 121.181C179.945 121.009 179.723 120.785 179.552 120.523C179.192 119.979 179.262 119.596 179.384 119.372C179.776 118.653 181.12 118.669 181.386 118.679C182.016 118.704 182.705 118.807 183.031 119.375C183.372 119.974 183.06 120.74 182.557 121.135C182.219 121.403 181.803 121.548 181.375 121.549V121.549ZM181.227 119.198C180.64 119.198 179.987 119.34 179.832 119.626C179.754 119.767 179.803 119.97 179.976 120.231C180.108 120.434 180.278 120.608 180.478 120.741C180.678 120.875 180.902 120.965 181.137 121.007C181.331 121.041 181.53 121.034 181.721 120.985C181.912 120.936 182.091 120.846 182.246 120.722V120.722C182.565 120.472 182.788 119.986 182.59 119.64C182.392 119.294 181.858 119.22 181.366 119.201C181.32 119.199 181.274 119.198 181.227 119.198V119.198Z" fill="white"/>
<path d="M175.007 136.843C174.622 136.842 174.244 136.746 173.904 136.563C173.564 136.379 173.272 136.114 173.055 135.79V135.79C172.744 135.316 172.531 134.512 172.727 133.891C172.774 133.725 172.859 133.573 172.975 133.446C173.09 133.32 173.234 133.224 173.393 133.164C174.368 132.793 175.656 133.545 176.174 134.208C176.595 134.746 176.842 135.609 176.389 136.235C176.172 136.535 175.809 136.741 175.367 136.814C175.248 136.834 175.127 136.844 175.007 136.843V136.843ZM173.479 135.5C173.678 135.791 173.953 136.019 174.271 136.16C174.59 136.301 174.941 136.349 175.285 136.298C175.464 136.269 175.792 136.182 175.978 135.923C176.257 135.538 176.087 134.932 175.774 134.531C175.352 133.991 174.284 133.381 173.572 133.652C173.485 133.684 173.407 133.737 173.345 133.806C173.283 133.875 173.238 133.958 173.214 134.049C173.074 134.49 173.24 135.132 173.479 135.499V135.5Z" fill="white"/>
<path d="M130.248 144.109C129.47 144.109 128.723 143.967 128.089 143.502C127.271 142.904 126.858 141.9 127.061 141.005C127.231 140.251 127.799 139.74 128.626 139.596C130.53 139.264 132.47 140.576 132.951 142.521C133.008 142.753 133.058 143.056 132.932 143.34C132.73 143.79 132.241 143.915 131.79 143.978C131.28 144.057 130.765 144.101 130.248 144.109V144.109ZM129.226 140.066C129.054 140.066 128.883 140.081 128.714 140.11C128.094 140.219 127.685 140.578 127.561 141.122C127.407 141.804 127.748 142.608 128.389 143.078C129.286 143.734 130.528 143.627 131.724 143.46C132.037 143.417 132.37 143.344 132.469 143.123C132.529 142.987 132.495 142.798 132.458 142.648C132.08 141.138 130.692 140.066 129.223 140.066H129.226Z" fill="white"/>
<path d="M150.425 142.583C149.867 142.583 149.413 142.475 149.04 142.252C148.779 142.093 148.567 141.863 148.427 141.588C148.287 141.312 148.225 141.003 148.248 140.693C148.265 140.435 148.357 140.188 148.512 139.983C148.667 139.778 148.877 139.625 149.117 139.542C149.926 139.238 152.031 139.52 152.47 140.549C152.722 141.142 152.42 141.795 151.993 142.133C151.627 142.423 151.141 142.571 150.509 142.583L150.425 142.583ZM149.298 141.802C149.607 141.985 149.999 142.07 150.498 142.061C151.015 142.051 151.401 141.94 151.677 141.721C151.953 141.502 152.14 141.089 151.998 140.757C151.714 140.081 149.978 139.775 149.294 140.031C149.146 140.081 149.015 140.175 148.92 140.301C148.824 140.428 148.768 140.58 148.758 140.739C148.744 140.95 148.787 141.16 148.882 141.348C148.977 141.535 149.121 141.692 149.298 141.802V141.802Z" fill="white"/>
<path d="M167.183 147.624C166.846 147.621 166.511 147.582 166.182 147.508C165.411 147.342 164.822 147.068 164.38 146.669C163.886 146.224 163.6 145.591 163.616 144.975C163.622 144.719 163.684 144.466 163.797 144.237C163.911 144.008 164.073 143.807 164.272 143.649C164.948 143.099 165.984 143.112 166.909 143.196C167.486 143.249 168.301 143.442 168.914 144.057C169.504 144.65 169.727 145.528 169.469 146.24C169.253 146.838 168.713 147.314 168.026 147.512C167.751 147.589 167.467 147.626 167.183 147.624V147.624ZM166.088 143.675C165.519 143.675 164.957 143.758 164.59 144.057C164.449 144.166 164.335 144.307 164.254 144.468C164.174 144.63 164.131 144.807 164.127 144.988C164.115 145.452 164.337 145.933 164.719 146.278C165.093 146.615 165.606 146.85 166.288 146.997C166.92 147.133 167.444 147.137 167.887 147.009C168.41 146.858 168.832 146.494 168.989 146.059C169.176 145.543 168.997 144.873 168.555 144.429C168.05 143.921 167.356 143.761 166.863 143.716C166.617 143.693 166.352 143.675 166.088 143.675Z" fill="white"/>
<path d="M131.666 161.74C130.261 161.74 129.259 160.715 129.073 159.626C128.922 158.744 129.31 157.582 130.9 157.21C131.938 156.967 132.899 157.259 133.538 158.011C134.106 158.683 134.293 159.604 134.008 160.355C133.723 161.107 133.019 161.597 132.031 161.718C131.91 161.733 131.788 161.74 131.666 161.74V161.74ZM131.597 157.649C131.401 157.65 131.206 157.673 131.015 157.718C129.775 158.008 129.459 158.848 129.577 159.537C129.738 160.478 130.677 161.357 131.97 161.199C132.761 161.103 133.315 160.736 133.531 160.167C133.747 159.598 133.6 158.881 133.151 158.353C132.76 157.892 132.212 157.649 131.597 157.649Z" fill="white"/>
<path d="M158.294 162.261C157.66 162.261 157.109 162.123 156.646 161.847C155.977 161.448 155.605 160.81 155.598 160.052C155.59 159.13 156.123 158.201 156.955 157.684C157.41 157.403 158.001 157.347 158.672 157.52C159.587 157.757 160.495 158.395 160.882 159.072C161.297 159.798 161.27 160.723 160.817 161.322C160.471 161.778 159.907 162.063 159.103 162.192C158.835 162.236 158.565 162.259 158.294 162.261V162.261ZM156.905 161.397C157.449 161.721 158.162 161.815 159.024 161.677C159.696 161.569 160.151 161.348 160.412 161.003C160.741 160.568 160.753 159.882 160.441 159.335C160.123 158.778 159.327 158.228 158.547 158.027C158.174 157.93 157.641 157.869 157.221 158.13C156.55 158.546 156.103 159.318 156.11 160.048C156.113 160.449 156.254 161.008 156.905 161.397H156.905Z" fill="white"/>
<path d="M178.903 161.428H178.769C178.227 161.413 177.542 161.338 177.045 160.89C176.526 160.421 176.376 159.725 176.645 159.029C176.946 158.245 177.683 157.71 178.439 157.731C179.182 157.75 180.276 158.353 180.719 159.221C180.978 159.728 180.961 160.253 180.671 160.701C180.358 161.183 179.763 161.428 178.903 161.428ZM177.384 160.497C177.757 160.834 178.328 160.892 178.784 160.903C179.529 160.924 180.02 160.759 180.245 160.411C180.433 160.121 180.44 159.8 180.266 159.459C179.922 158.785 179.01 158.265 178.426 158.25C177.881 158.238 177.346 158.633 177.119 159.217C177.029 159.449 176.876 160.039 177.382 160.496L177.384 160.497Z" fill="white"/>
<path d="M143.7 187.35L154.526 127.437C155.187 123.783 158.293 120.811 161.463 120.811H241.244C242.826 120.811 244.125 121.552 244.948 122.717V122.748C245.012 122.841 245.072 122.953 245.131 123.051L248.055 127.677L245.648 128.225L234.96 187.349C234.299 191.002 231.193 193.951 228.024 193.951H148.242C145.074 193.951 143.039 191.006 143.7 187.35Z" fill="#B8D1CE"/>
<path d="M103.145 188.841H152.469V198.87H97.96V194.133C97.9599 193.438 98.094 192.75 98.3545 192.108C98.615 191.466 98.997 190.882 99.4785 190.391C99.96 189.899 100.532 189.51 101.161 189.244C101.79 188.978 102.464 188.841 103.145 188.841V188.841Z" fill="#B8D1CE"/>
<path d="M151.333 198.87H231.114C234.284 198.87 237.39 195.907 238.051 192.251L248.877 132.345C249.538 128.692 247.504 125.726 244.332 125.726H164.55C161.38 125.726 158.274 128.689 157.613 132.345L146.787 192.251C146.129 195.907 148.162 198.87 151.333 198.87Z" fill="#E3EDEB"/>
<path d="M205.593 164.243C207.643 159.493 206.065 154.187 202.07 152.391C198.075 150.595 193.174 152.99 191.124 157.739C189.075 162.489 190.652 167.795 194.647 169.591C198.643 171.387 203.543 168.992 205.593 164.243Z" fill="white"/>
<path d="M116.493 132.503C115.925 134.481 115.312 137.234 114.851 139.248C111.533 138.756 106.747 136.734 103.666 135.376C99.7489 133.649 96.0695 131.408 92.4856 129.043C90.2291 127.555 88.1329 125.668 86.5225 123.473C86.6939 123.658 86.9122 123.791 87.1532 123.858C89.7342 125.398 92.4387 126.711 95.2376 127.783C101.516 130.211 109.823 131.581 116.493 132.503Z" fill="#E5775C"/>
<path d="M195.033 108.165C195.034 108.175 195.034 108.186 195.033 108.196C195.016 108.411 194.532 108.838 194.395 109.008C193.922 109.599 193.45 110.191 192.921 110.727C191.697 111.965 190.2 112.887 188.556 113.414C188.205 113.53 187.846 113.617 187.482 113.677C187.168 112.835 186.791 112.019 186.354 111.236C189.412 110.842 192.365 109.728 195.033 108.165Z" fill="#E5775C"/>
<path d="M143.601 55.8862C144.091 56.7642 144.532 57.6932 145.182 58.446C145.786 59.15 146.607 59.709 147.526 59.8308C148.445 59.9526 149.339 59.5565 150.006 58.9238C150.719 58.2488 151.134 57.3058 151.424 56.353C151.424 58.2876 150.259 60.1927 148.282 60.5116C146.903 60.7274 145.532 59.9108 144.762 58.7829C144.159 57.913 143.839 56.9057 143.601 55.8833V55.8862Z" fill="#2E150B"/>
<path d="M157.185 78.0825C156.711 79.2777 158.017 80.5466 157.8 81.8177C157.619 82.8726 156.417 83.4647 155.373 83.3598C154.329 83.2548 153.408 82.6534 152.498 82.1205C151.589 81.5875 150.574 81.0946 149.535 81.2343C147.933 81.4495 146.909 83.0321 146.065 84.4361C145.222 85.8401 144.087 87.3832 142.472 87.4296C140.026 87.5021 138.665 84.1629 136.25 83.7761C134.935 83.565 133.551 84.2911 132.288 83.8596C130.675 83.3105 130.003 81.1305 128.375 80.6312C127.441 80.3448 126.443 80.6962 125.543 81.0772C124.643 81.4582 123.691 81.8786 122.728 81.7273C121.498 81.5342 120.792 80.3129 121.433 79.222C121.73 78.7169 122.039 78.3997 122.247 78.0761L128.475 75.8857L134.096 73.9094C134.263 73.8114 134.426 73.7354 134.524 73.6038C137.081 75.2983 140.15 75.5859 143.189 75.8457C145.191 76.0162 147.221 76.1856 149.194 75.8011C151.166 75.4166 153.058 74.4626 154.133 72.7339L162.716 74.6372C163.322 74.7709 163.929 74.9063 164.538 75.0431C163.258 76.0427 161.734 76.6635 160.131 76.8374C159.013 76.9511 157.606 77.0195 157.185 78.0825Z" fill="#FF922D"/>
<path d="M122.007 46.6671L124.337 43.299L124.668 26.8872C124.668 23.1578 125.777 19.4875 128.404 16.5223C130.987 13.6065 134.645 11.4388 138.741 10.4251C140.703 9.93968 142.746 9.78194 144.78 9.76048C146.973 9.73728 149.176 9.64914 151.362 9.82949C155.25 10.1508 158.999 11.5855 161.849 13.8889C162.697 14.5686 163.469 15.3421 164.15 16.1953L164.123 15.8589C163.076 14.0565 161.578 12.4571 159.744 11.2248C157.951 10.0203 155.953 8.99789 153.794 8.36983C151.009 7.56375 148.023 7.65653 145.13 7.73192C142.516 7.79977 140.001 7.96389 137.493 8.65515C134.12 9.58303 131.039 11.2213 128.537 13.3757C124.328 16.9985 122.343 21.7973 122.343 26.8878L122.007 46.6671Z" fill="#769FFF"/>
<path d="M143.98 62.3911C144.92 62.39 145.859 62.3245 146.791 62.1951L146.617 60.8822C142.214 61.4882 138.258 60.6386 134.859 58.3572C132.336 56.6638 131.104 54.7988 131.092 54.7803L130.013 55.5139C130.07 55.5991 131.405 57.6236 134.147 59.4637C136.246 60.8735 139.54 62.3911 143.98 62.3911Z" fill="#769FFF"/>
<path d="M144.479 61.4756C144.479 62.9439 146.255 64.0899 148.269 64.0899C150.283 64.0899 151.919 62.8999 151.919 61.4327C151.919 59.9655 150.287 58.7749 148.272 58.7749C146.258 58.7749 144.479 60.0078 144.479 61.4756Z" fill="#769FFF"/>
<path d="M120.723 48.7987C120.723 53.3366 124.94 57.4459 127.797 57.345C131.704 57.2076 134.095 54.3636 134.095 49.8264C134.095 45.2891 130.932 41.1763 127.023 41.1763C123.113 41.1763 120.723 44.2614 120.723 48.7987Z" fill="#205DEE"/>
<path d="M122.086 48.9318C122.086 52.6195 124.904 55.671 126.825 55.5893C129.453 55.4773 131.079 53.6216 131.079 49.9339C131.079 46.2462 128.787 42.9331 126.158 42.9331C123.529 42.9331 122.086 45.2435 122.086 48.9318Z" fill="#769FFF"/>
</g>
<defs>
<filter id="filter0_b_964_2425" x="-4.00195" y="15.8838" width="255.346" height="187.116" filterUnits="userSpaceOnUse" color-interpolation-filters="sRGB">
<feFlood flood-opacity="0" result="BackgroundImageFix"/>
<feGaussianBlur in="BackgroundImageFix" stdDeviation="2"/>
<feComposite in2="SourceAlpha" operator="in" result="effect1_backgroundBlur_964_2425"/>
<feBlend mode="normal" in="SourceGraphic" in2="effect1_backgroundBlur_964_2425" result="shape"/>
</filter>
<linearGradient id="paint0_linear_964_2425" x1="171.651" y1="-26.6043" x2="123.574" y2="198.915" gradientUnits="userSpaceOnUse">
<stop stop-color="#EDEDED"/>
<stop offset="1" stop-color="#EDEDED" stop-opacity="0"/>
</linearGradient>
<clipPath id="clip0_964_2425">
<rect width="249" height="199" fill="white"/>
</clipPath>
</defs>
</svg>
