<svg width="22" height="22" viewBox="0 0 22 22" fill="none" xmlns="http://www.w3.org/2000/svg">
<path d="M19.25 20.1665H2.75C2.37417 20.1665 2.0625 19.8548 2.0625 19.479C2.0625 19.1032 2.37417 18.7915 2.75 18.7915H19.25C19.6258 18.7915 19.9375 19.1032 19.9375 19.479C19.9375 19.8548 19.6258 20.1665 19.25 20.1665Z" fill="#F8F8F8"/>
<path d="M17.4341 3.18986C15.6557 1.41153 13.9141 1.36569 12.0899 3.18986L10.9807 4.29903C10.8891 4.39069 10.8524 4.53736 10.8891 4.66569C11.5857 7.09486 13.5291 9.03819 15.9582 9.73486C15.9949 9.74403 16.0316 9.75319 16.0682 9.75319C16.1691 9.75319 16.2607 9.71653 16.3341 9.64319L17.4341 8.53403C18.3416 7.63569 18.7816 6.76486 18.7816 5.88486C18.7907 4.97736 18.3507 4.09736 17.4341 3.18986Z" fill="#F8F8F8"/>
<path d="M14.3096 10.5692C14.0438 10.4409 13.7871 10.3126 13.5396 10.1659C13.338 10.0467 13.1455 9.9184 12.953 9.7809C12.7971 9.68006 12.6138 9.5334 12.4396 9.38673C12.4213 9.37756 12.3571 9.32256 12.2838 9.24923C11.9813 8.99256 11.6421 8.66256 11.3396 8.2959C11.3121 8.27757 11.2663 8.2134 11.2021 8.1309C11.1105 8.0209 10.9546 7.83756 10.8171 7.62673C10.7071 7.48923 10.5788 7.28756 10.4596 7.0859C10.313 6.8384 10.1846 6.5909 10.0563 6.33423C10.0462 6.31255 10.0362 6.29093 10.0264 6.26936C9.8758 5.93742 9.44168 5.83967 9.18393 6.09743L3.97879 11.3026C3.85962 11.4217 3.74962 11.6509 3.72212 11.8067L3.22712 15.3176C3.13545 15.9409 3.30962 16.5276 3.69462 16.9217C4.02462 17.2426 4.48295 17.4167 4.97795 17.4167C5.08795 17.4167 5.19795 17.4076 5.30795 17.3892L8.82795 16.8942C8.99295 16.8667 9.22212 16.7567 9.33212 16.6376L14.5301 11.4396C14.7897 11.18 14.692 10.734 14.3548 10.5888C14.3398 10.5823 14.3248 10.5758 14.3096 10.5692Z" fill="#F8F8F8"/>
</svg>
