<svg width="22" height="22" viewBox="0 0 22 22" fill="none" xmlns="http://www.w3.org/2000/svg">
<path d="M10.3333 15.8957H8.33333C7.35556 15.8957 6.55556 16.6407 6.55556 17.5513V17.7583H5.66667C5.30222 17.7583 5 18.0397 5 18.3791C5 18.7185 5.30222 19 5.66667 19H16.3333C16.6978 19 17 18.7185 17 18.3791C17 18.0397 16.6978 17.7583 16.3333 17.7583H15.4444V17.5513C15.4444 16.6407 14.6444 15.8957 13.6667 15.8957H11.6667V14C11.4444 14.0248 11.2222 14.0331 11 14.0331C10.7778 14.0331 10.5556 14.0248 10.3333 14V15.8957Z" fill="#F8F8F8"/>
<path d="M16.3333 10.5743C16.8765 10.3779 17.3539 10.0557 17.7325 9.69429C18.4979 8.885 19 7.91857 19 6.78714C19 5.65571 18.07 4.76786 16.8848 4.76786H16.4239C15.8889 3.72286 14.7695 3 13.4691 3H8.53086C7.23045 3 6.11111 3.72286 5.57613 4.76786H5.11523C3.93004 4.76786 3 5.65571 3 6.78714C3 7.91857 3.50206 8.885 4.26749 9.69429C4.64609 10.0557 5.12346 10.3779 5.66667 10.5743C6.52263 12.5857 8.58025 14 11 14C13.4198 14 15.4774 12.5857 16.3333 10.5743ZM13.3374 8.06786L12.8272 8.665C12.7449 8.75143 12.6872 8.92429 12.6955 9.04214L12.7449 9.81214C12.7778 10.2836 12.4239 10.5271 11.963 10.3543L11.214 10.0714C11.0988 10.0321 10.9012 10.0321 10.786 10.0714L10.037 10.3543C9.57613 10.5271 9.22222 10.2836 9.25514 9.81214L9.30453 9.04214C9.31276 8.92429 9.25514 8.75143 9.17284 8.665L8.66255 8.06786C8.34156 7.70643 8.48148 7.30571 8.95885 7.18786L9.74074 6.99929C9.8642 6.96786 10.0123 6.85786 10.0782 6.75571L10.5144 6.11143C10.786 5.71071 11.214 5.71071 11.4856 6.11143L11.9218 6.75571C11.9877 6.85786 12.1358 6.96786 12.2593 6.99929L13.0412 7.18786C13.5185 7.30571 13.6584 7.70643 13.3374 8.06786Z" fill="#F8F8F8"/>
</svg>
