<svg width="30" height="30" viewBox="0 0 30 30" fill="none" xmlns="http://www.w3.org/2000/svg">
<path d="M15 9.6875H10.9375V11.5625H19.0125C18.0375 10.425 16.6125 9.6875 15 9.6875Z" fill="white"/>
<path d="M20.3125 15C20.3125 14.45 20.2 13.9375 20.05 13.4375H10.9375V16.5625H20.05C20.2 16.0625 20.3125 15.55 20.3125 15Z" fill="white"/>
<path d="M15 2.5C8.1 2.5 2.5 8.1 2.5 15C2.5 21.9 8.1 27.5 15 27.5C21.9 27.5 27.5 21.9 27.5 15C27.5 8.1 21.9 2.5 15 2.5ZM23.15 18.4375H21.3125C20.0875 20.675 17.725 22.1875 15 22.1875H10C9.4875 22.1875 9.0625 21.7625 9.0625 21.25V18.4375H8.09998C7.58748 18.4375 7.16248 18.0125 7.16248 17.5C7.16248 16.9875 7.58748 16.5625 8.09998 16.5625H9.0625V13.4375H8.09998C7.58748 13.4375 7.16248 13.0125 7.16248 12.5C7.16248 11.9875 7.58748 11.5625 8.09998 11.5625H9.0625V8.75C9.0625 8.2375 9.4875 7.8125 10 7.8125H15C17.725 7.8125 20.0875 9.325 21.3125 11.5625H23.15C23.6625 11.5625 24.0875 11.9875 24.0875 12.5C24.0875 13.0125 23.6625 13.4375 23.15 13.4375H22.0125C22.125 13.9375 22.1875 14.4625 22.1875 15C22.1875 15.5375 22.125 16.0625 22.0125 16.5625H23.15C23.6625 16.5625 24.0875 16.9875 24.0875 17.5C24.0875 18.0125 23.6625 18.4375 23.15 18.4375Z" fill="white"/>
<path d="M10.9375 20.3125H15C16.6125 20.3125 18.0375 19.575 19.0125 18.4375H10.9375V20.3125Z" fill="white"/>
</svg>
