<svg width="30" height="30" viewBox="0 0 30 30" fill="none" xmlns="http://www.w3.org/2000/svg">
<path d="M10.9621 18.0377L12.9746 18.9377C14.2621 19.5127 15.7371 19.5127 17.0371 18.9377L19.0496 18.0377C20.8496 17.2377 22.5122 19.4127 21.2622 20.9377L16.9372 26.2252C15.8747 27.5252 14.1371 27.5252 13.0621 26.2252L8.74965 20.9377C7.48715 19.4127 9.14965 17.2377 10.9621 18.0377Z" fill="white"/>
<path d="M10.7126 14.5874C10.3376 14.8624 10.3876 15.4374 10.8126 15.6499L13.7501 17.1124C14.4376 17.4624 15.5501 17.4624 16.2251 17.1124L19.1626 15.6499C19.5751 15.4374 19.6251 14.8749 19.2626 14.5874L15.3751 11.6624C15.1501 11.4999 14.8501 11.4999 14.6251 11.6624L10.7126 14.5874Z" fill="white"/>
<path d="M22.3504 10.3L17.1379 3.80002C17.0379 3.67502 16.9254 3.56252 16.8129 3.45002C16.4879 3.13752 16.0254 3.42502 16.0254 3.87502V9.25002C16.0254 9.45002 16.1129 9.63752 16.2754 9.75002L21.4629 13.65L21.6879 13.8125C21.9129 13.975 22.2254 13.975 22.4129 13.775C23.2879 12.825 23.2754 11.45 22.3504 10.3Z" fill="white"/>
<path d="M7.63732 10.4126L12.8248 3.81255C12.9248 3.68755 13.0248 3.57505 13.1373 3.46255C13.4623 3.15005 13.9248 3.42505 13.9248 3.88755V9.35005C13.9248 9.55005 13.8373 9.72505 13.6748 9.85005L8.51232 13.8126L8.29982 13.9751C8.07482 14.1376 7.76232 14.1376 7.56232 13.9251C6.71232 12.9626 6.72482 11.5876 7.63732 10.4126Z" fill="white"/>
</svg>
