<svg width="13" height="17" viewBox="0 0 13 17" fill="none" xmlns="http://www.w3.org/2000/svg">
<path d="M8.30375 15.7223C10.0003 12.7105 9.28993 8.92018 6.61471 6.71054C6.61318 6.70928 6.61164 6.70775 6.61039 6.70677L6.62197 6.73551L6.61988 6.75713C7.14109 8.13395 7.06798 9.64552 6.42763 10.9425L5.97631 11.8568L5.83792 10.8465C5.74389 10.1612 5.48538 9.50752 5.08735 8.94781H5.02457L4.9915 8.85406C4.99625 9.9012 4.77554 10.9327 4.34279 11.906C3.775 13.1794 3.85843 14.6478 4.56628 15.8345L5.05471 16.6538L4.17596 16.2826C2.72689 15.6704 1.56839 14.491 0.997534 13.047C0.357891 11.4345 0.476319 9.56481 1.31478 8.0466C1.75199 7.25699 2.05821 6.41852 2.22535 5.55413L2.38885 4.70688L2.80571 5.46245C3.00479 5.82281 3.15127 6.21274 3.24224 6.62245L3.25159 6.63208L3.26122 6.69765L3.27029 6.69486C4.51904 5.03582 5.26721 2.97128 5.37618 0.880927L5.40436 0.339355L5.85875 0.635673C7.71311 1.8441 9.0009 3.78285 9.39879 5.96139L9.40786 6.00603L9.4126 6.01287L9.43297 5.98413C9.7964 5.50409 9.98822 4.9332 9.98822 4.3322V3.40152L10.5498 4.14341C11.8554 5.86774 12.5248 8.00699 12.4348 10.167C12.3242 12.7095 10.9376 14.9409 8.7255 16.1502L7.76765 16.6736L8.30375 15.7223Z" fill="#F8F8F8"/>
</svg>
