<svg width="22" height="22" viewBox="0 0 22 22" fill="none" xmlns="http://www.w3.org/2000/svg">
<path d="M17.7555 4.48236L12.3839 2.08986C11.5955 1.74153 10.4039 1.74153 9.61555 2.08986L4.24388 4.48236C2.88721 5.08736 2.68555 5.91236 2.68555 6.35236C2.68555 6.79236 2.88721 7.61736 4.24388 8.22236L9.61555 10.6149C10.0097 10.789 10.5047 10.8807 10.9997 10.8807C11.4947 10.8807 11.9897 10.789 12.3839 10.6149L17.7555 8.22236C19.1122 7.61736 19.3139 6.79236 19.3139 6.35236C19.3139 5.91236 19.1214 5.08736 17.7555 4.48236Z" fill="#F8F8F8"/>
<path d="M11.0003 15.6202C10.652 15.6202 10.3036 15.5468 9.98279 15.4093L3.80445 12.6593C2.86029 12.2377 2.12695 11.1102 2.12695 10.0743C2.12695 9.6985 2.42945 9.396 2.80529 9.396C3.18112 9.396 3.48362 9.6985 3.48362 10.0743C3.48362 10.5693 3.89612 11.211 4.35445 11.4127L10.5328 14.1627C10.8261 14.291 11.1653 14.291 11.4586 14.1627L17.637 11.4127C18.0953 11.211 18.5078 10.5785 18.5078 10.0743C18.5078 9.6985 18.8103 9.396 19.1861 9.396C19.562 9.396 19.8645 9.6985 19.8645 10.0743C19.8645 11.101 19.1311 12.2377 18.187 12.6593L12.0086 15.4093C11.697 15.5468 11.3486 15.6202 11.0003 15.6202Z" fill="#F8F8F8"/>
<path d="M11.0003 20.1665C10.652 20.1665 10.3036 20.0932 9.98279 19.9557L3.80445 17.2057C2.78695 16.7565 2.12695 15.739 2.12695 14.6207C2.12695 14.2449 2.42945 13.9424 2.80529 13.9424C3.18112 13.9424 3.48362 14.2449 3.48362 14.6207C3.48362 15.1982 3.82279 15.7207 4.35445 15.959L10.5328 18.709C10.8261 18.8374 11.1653 18.8374 11.4586 18.709L17.637 15.959C18.1595 15.7299 18.5078 15.1982 18.5078 14.6207C18.5078 14.2449 18.8103 13.9424 19.1861 13.9424C19.562 13.9424 19.8645 14.2449 19.8645 14.6207C19.8645 15.739 19.2045 16.7474 18.187 17.2057L12.0086 19.9557C11.697 20.0932 11.3486 20.1665 11.0003 20.1665Z" fill="#F8F8F8"/>
</svg>
