<svg width="22" height="22" viewBox="0 0 22 22" fill="none" xmlns="http://www.w3.org/2000/svg">
<path d="M19.1499 4.74819V15.1065C19.1499 16.9215 17.6741 18.3974 15.8591 18.3974C14.0532 18.3974 12.5682 16.9215 12.5682 15.1065C12.5682 13.3007 14.0532 11.8249 15.8591 11.8249C16.6291 11.8249 17.3166 12.0907 17.8757 12.5307V7.07653L9.43323 9.47819V16.8757C9.43323 18.6907 7.94823 20.1665 6.1424 20.1665C4.3274 20.1665 2.85156 18.6907 2.85156 16.8757C2.85156 15.0699 4.3274 13.594 6.1424 13.594C6.90323 13.594 7.59073 13.8599 8.1499 14.2907V6.18736C8.1499 4.83986 8.96573 3.79486 10.2582 3.44653L15.5566 1.99819C16.6291 1.70486 17.5366 1.80569 18.1782 2.30069C18.8291 2.78653 19.1499 3.61153 19.1499 4.74819Z" fill="#F8F8F8"/>
</svg>
