<svg width="22" height="22" viewBox="0 0 22 22" fill="none" xmlns="http://www.w3.org/2000/svg">
<path d="M14.8952 20.6248C15.7811 20.6248 16.4993 19.9066 16.4993 19.0207C16.4993 18.1347 15.7811 17.4165 14.8952 17.4165C14.0092 17.4165 13.291 18.1347 13.291 19.0207C13.291 19.9066 14.0092 20.6248 14.8952 20.6248Z" fill="#F8F8F8"/>
<path d="M7.56315 20.6248C8.44911 20.6248 9.16732 19.9066 9.16732 19.0207C9.16732 18.1347 8.44911 17.4165 7.56315 17.4165C6.67719 17.4165 5.95898 18.1347 5.95898 19.0207C5.95898 19.9066 6.67719 20.6248 7.56315 20.6248Z" fill="#F8F8F8"/>
<path d="M4.43732 3.61183L4.25398 5.85766C4.21732 6.2885 4.55648 6.646 4.98732 6.646H19.0215C19.4065 6.646 19.7273 6.35266 19.7548 5.96766C19.874 4.34516 18.6365 3.02516 17.014 3.02516H5.74815C5.65648 2.62183 5.47315 2.23683 5.18898 1.916C4.73065 1.43016 4.08898 1.146 3.42898 1.146H1.83398C1.45815 1.146 1.14648 1.45766 1.14648 1.8335C1.14648 2.20933 1.45815 2.521 1.83398 2.521H3.42898C3.71315 2.521 3.97898 2.64016 4.17148 2.84183C4.36398 3.05266 4.45565 3.32766 4.43732 3.61183Z" fill="#F8F8F8"/>
<path d="M18.8002 8.021H4.73856C4.35356 8.021 4.0419 8.31433 4.00523 8.69016L3.67523 12.6777C3.5469 14.2452 4.77523 15.5835 6.34273 15.5835H16.5361C17.9111 15.5835 19.1211 14.456 19.2219 13.081L19.5244 8.80016C19.5611 8.3785 19.2311 8.021 18.8002 8.021Z" fill="#F8F8F8"/>
</svg>
