<svg width="30" height="30" viewBox="0 0 30 30" fill="none" xmlns="http://www.w3.org/2000/svg">
<path d="M15.9375 18.1499H16.225C16.6375 18.1499 16.9875 17.7749 16.9875 17.3124C16.9875 16.7249 16.85 16.6499 16.45 16.5124L15.9375 16.3374V18.1499Z" fill="white"/>
<path d="M15 2.5C8.1 2.5 2.5 8.1 2.5 15C2.5 21.9 8.1 27.5 15 27.5C21.9 27.5 27.5 21.9 27.5 15C27.5 8.1 21.9 2.5 15 2.5ZM9.47498 20.525C9.83748 20.8875 9.83748 21.4875 9.47498 21.85C9.28748 22.0375 9.04998 22.125 8.81248 22.125C8.57498 22.125 8.33749 22.0375 8.14999 21.85C6.32499 20.025 5.3125 17.5875 5.3125 15C5.3125 12.4125 6.32499 9.975 8.14999 8.15C8.51249 7.7875 9.11248 7.7875 9.47498 8.15C9.83748 8.5125 9.83748 9.1125 9.47498 9.475C7.99998 10.95 7.1875 12.9125 7.1875 15C7.1875 17.0875 7.99998 19.05 9.47498 20.525ZM17.0625 14.725C18.2625 15.15 18.85 15.9875 18.85 17.3C18.85 18.8 17.675 20.0125 16.2125 20.0125H15.925V20.2375C15.925 20.75 15.5 21.175 14.9875 21.175C14.475 21.175 14.05 20.75 14.05 20.2375V20.0125H14.0125C12.425 20.0125 11.125 18.675 11.125 17.0375C11.125 16.525 11.55 16.1 12.0625 16.1C12.575 16.1 13 16.525 13 17.0375C13 17.65 13.45 18.1375 14.0125 18.1375H14.05V15.6625L12.925 15.2625C11.725 14.8375 11.1375 14 11.1375 12.6875C11.1375 11.1875 12.3125 9.975 13.775 9.975H14.0625V9.75C14.0625 9.2375 14.4875 8.8125 15 8.8125C15.5125 8.8125 15.9375 9.2375 15.9375 9.75V9.975H15.975C17.5625 9.975 18.8625 11.3125 18.8625 12.95C18.8625 13.4625 18.4375 13.8875 17.925 13.8875C17.4125 13.8875 16.9875 13.4625 16.9875 12.95C16.9875 12.3375 16.5375 11.85 15.975 11.85H15.9375V14.325L17.0625 14.725ZM21.85 21.85C21.6625 22.0375 21.425 22.125 21.1875 22.125C20.95 22.125 20.7125 22.0375 20.525 21.85C20.1625 21.4875 20.1625 20.8875 20.525 20.525C22 19.05 22.8125 17.0875 22.8125 15C22.8125 12.9125 22 10.95 20.525 9.475C20.1625 9.1125 20.1625 8.5125 20.525 8.15C20.8875 7.7875 21.4875 7.7875 21.85 8.15C23.675 9.975 24.6875 12.4125 24.6875 15C24.6875 17.5875 23.675 20.025 21.85 21.85Z" fill="white"/>
<path d="M13.0254 12.7001C13.0254 13.2876 13.1629 13.3626 13.5629 13.5001L14.0754 13.6751V11.8501H13.7879C13.3629 11.8501 13.0254 12.2376 13.0254 12.7001Z" fill="white"/>
</svg>
